<svg width="1755" height="2299" viewBox="0 0 1755 2299" fill="none" xmlns="http://www.w3.org/2000/svg">
<mask id="mask0_221_20" style="mask-type:luminance" maskUnits="userSpaceOnUse" x="537" y="293" width="1311" height="1409">
<path d="M537.307 604.764L1488.35 293.394L1847.4 1390.06L896.351 1701.43L537.307 604.764Z" fill="white"/>
</mask>
<g mask="url(#mask0_221_20)">
<path d="M1283.64 1336.48C1201 1335.27 1129.14 1302.85 1059.36 1265.34C900.147 1179.92 762.329 1069.03 660.651 918.125C634.789 879.788 613.349 836.247 599.936 792.045C569.371 690.961 636.862 605.971 742.992 605.854C813.018 605.717 873.519 634.591 930.889 670.864C1016.75 725.085 1089.8 794.286 1157.22 869.744C1167.95 881.825 1179.25 893.404 1195.09 910.356C1199.77 857.039 1200.8 811.528 1208.31 767.089C1223.42 677.84 1238.66 588.396 1260.78 500.787C1271.63 457.86 1292.76 415.166 1318.32 378.704C1369.19 306.093 1456.8 310.25 1506.95 383.35C1544.46 438.044 1555.16 501.682 1559.84 565.091C1566.22 651.946 1569.71 739.431 1567.75 826.488C1563.46 1009.96 1541.67 1191.64 1501.5 1370.77C1493.45 1406.57 1481.53 1442 1467.19 1475.77C1453.54 1507.93 1427.97 1530.35 1391.88 1536.13C1338.41 1544.65 1291.74 1507.9 1284.46 1447.71C1280.2 1413.01 1283.6 1377.5 1283.64 1336.48ZM1119.42 1191.84C1021.66 1070.87 920.872 952.836 795.597 858.586C872.385 999.832 986.376 1105.04 1119.42 1191.84Z" fill="#D42865"/>
</g>
</svg>
