<svg width="684" height="855" viewBox="0 0 684 855" fill="none" xmlns="http://www.w3.org/2000/svg">
<path d="M418.538 485.127L271.463 438.867C266.74 437.399 264.124 432.359 265.592 427.635L311.871 280.623C313.339 275.902 318.383 273.287 323.106 274.754L470.244 321.014C474.968 322.482 477.583 327.522 476.116 332.243L429.836 479.255C428.305 483.979 423.262 486.595 418.538 485.127Z" fill="#FDF4EC"/>
<mask id="mask0_224_481" style="mask-type:luminance" maskUnits="userSpaceOnUse" x="235" y="272" width="244" height="244">
<path d="M235.6 272.132H478.734V515.111H235.6V272.132Z" fill="white"/>
</mask>
<g mask="url(#mask0_224_481)">
<path d="M418.536 485.127L271.461 438.867C266.738 437.399 264.122 432.359 265.59 427.635L311.869 280.623C313.337 275.902 318.381 273.287 323.104 274.754L470.242 321.014C474.966 322.482 477.581 327.522 476.114 332.243L429.834 479.255C428.304 483.979 423.26 486.595 418.536 485.127Z" stroke="#2D2E2D" stroke-width="3.23471" stroke-miterlimit="10"/>
</g>
<path d="M290.357 397.901L324 291.152C324.191 290.515 324.894 290.133 325.53 290.324L459.329 332.434C459.965 332.625 460.348 333.328 460.157 333.968L426.517 440.78C426.326 441.42 425.623 441.803 424.984 441.611L291.189 399.498C290.486 399.241 290.166 398.604 290.357 397.901Z" fill="#F5B5D1"/>
<mask id="mask1_224_481" style="mask-type:luminance" maskUnits="userSpaceOnUse" x="254" y="272" width="225" height="206">
<path d="M254.178 272.132H478.734V477.956H254.178V272.132Z" fill="white"/>
</mask>
<g mask="url(#mask1_224_481)">
<path d="M290.357 397.902L324 291.152C324.191 290.515 324.894 290.133 325.53 290.324L459.329 332.434C459.965 332.625 460.348 333.328 460.157 333.968L426.517 440.78C426.326 441.42 425.623 441.803 424.983 441.611L291.189 399.498C290.486 399.241 290.166 398.604 290.357 397.902Z" stroke="#2D2E2D" stroke-width="4.01265" stroke-miterlimit="10"/>
</g>
<path d="M411.26 352.47C402.769 332.945 378.703 354.894 378.703 354.894C378.703 354.894 371.555 323.119 353.425 334.285C335.296 345.454 366.64 393.307 366.64 393.307C366.64 393.307 419.747 371.998 411.26 352.47Z" fill="#D83660" stroke="#2D2E2D" stroke-width="2.73892" stroke-miterlimit="10"/>
<path d="M284.805 415.513L352.852 436.888" stroke="#2D2E2D" stroke-width="2.98278" stroke-miterlimit="10"/>
<path d="M280.91 427.827L321.509 440.589" stroke="#2D2E2D" stroke-width="2.20887" stroke-miterlimit="10"/>
<path d="M393.578 556.591L241.271 580.457C236.419 581.222 231.824 577.841 231.059 572.988L207.121 420.744C206.352 415.895 209.736 411.3 214.589 410.535L366.961 386.607C371.81 385.842 376.409 389.223 377.174 394.075L401.112 546.382C401.815 551.231 398.493 555.826 393.578 556.591Z" fill="#FDF4EC"/>
<mask id="mask2_224_481" style="mask-type:luminance" maskUnits="userSpaceOnUse" x="205" y="357" width="226" height="226">
<path d="M205.266 357.2H430.666V582.31H205.266V357.2Z" fill="white"/>
</mask>
<g mask="url(#mask2_224_481)">
<path d="M393.578 556.591L241.271 580.457C236.419 581.222 231.824 577.841 231.059 572.989L207.121 420.744C206.352 415.895 209.736 411.3 214.589 410.535L366.961 386.607C371.81 385.842 376.409 389.223 377.174 394.075L401.112 546.382C401.815 551.231 398.493 555.826 393.578 556.591Z" stroke="#2D2E2D" stroke-width="3.23471" stroke-miterlimit="10"/>
</g>
<path d="M239.993 535.407L222.629 424.828C222.501 424.125 223.012 423.552 223.652 423.426L362.17 401.665C362.873 401.54 363.447 402.048 363.576 402.688L380.94 513.33C381.065 514.032 380.554 514.606 379.917 514.735L241.398 536.427C240.758 536.555 240.122 536.11 239.993 535.407Z" fill="#D2EAF9"/>
<mask id="mask3_224_481" style="mask-type:luminance" maskUnits="userSpaceOnUse" x="205" y="372" width="206" height="194">
<path d="M205.266 372.4H410.4V565.778H205.266V372.4Z" fill="white"/>
</mask>
<g mask="url(#mask3_224_481)">
<path d="M239.993 535.407L222.629 424.828C222.501 424.125 223.012 423.552 223.652 423.426L362.17 401.665C362.873 401.54 363.447 402.048 363.576 402.688L380.94 513.33C381.065 514.032 380.554 514.606 379.917 514.735L241.398 536.427C240.758 536.555 240.122 536.11 239.993 535.407Z" stroke="#2D2E2D" stroke-width="3.23471" stroke-miterlimit="10"/>
</g>
<path d="M328.083 440.972C311.808 427.253 299.999 457.626 299.999 457.626C299.999 457.626 279.442 432.359 268.144 450.415C256.846 468.472 306.19 497.378 306.19 497.378C306.19 497.378 344.362 454.69 328.083 440.972Z" fill="#D83660" stroke="#2D2E2D" stroke-width="2.73892" stroke-miterlimit="10"/>
<path d="M242.867 553.655L313.339 542.552" stroke="#2D2E2D" stroke-width="2.98278" stroke-miterlimit="10"/>
<mask id="mask4_224_481" style="mask-type:luminance" maskUnits="userSpaceOnUse" x="217" y="532" width="98" height="51">
<path d="M217.867 532.844H314.134V582.31H217.867V532.844Z" fill="white"/>
</mask>
<g mask="url(#mask4_224_481)">
<path d="M244.846 566.418L286.847 559.847" stroke="#2D2E2D" stroke-width="2.98278" stroke-miterlimit="10"/>
</g>
</svg>
