<svg width="696" height="870" viewBox="0 0 696 870" fill="none" xmlns="http://www.w3.org/2000/svg">
<mask id="mask0_227_16513" style="mask-type:luminance" maskUnits="userSpaceOnUse" x="215" y="299" width="272" height="263">
<path d="M215.674 299.955H486.34V561.956H215.674V299.955Z" fill="white"/>
</mask>
<g mask="url(#mask0_227_16513)">
<path d="M467.115 458.589C466.138 457.958 465.091 457.304 464.027 456.653V300.113H260.628V395.79L260.648 395.813C242.57 403.718 231.061 420.768 229.147 423.598C208.868 453.669 212.785 498.307 236.414 527.726C266.763 565.503 322.699 569.578 357.486 549.523C365.404 544.948 375.48 537.262 383.441 527.726H464.027V469.76C472.556 472.438 484.586 475.946 485.74 473.787C487.022 471.414 474.449 463.292 467.115 458.589ZM350.786 538.547C343.694 542.095 336.253 542.488 331.661 540.007C332.423 534.845 337.189 529.119 344.302 525.571C351.394 522 358.812 521.627 363.403 524.111C362.665 529.27 357.879 534.976 350.786 538.547Z" fill="#D6EAE8"/>
</g>
<path d="M337.602 379.091C339.928 380.44 340.17 384.337 338.166 387.801C336.166 391.285 332.661 393.004 330.335 391.675C328.029 390.349 327.768 386.428 329.792 382.965C331.792 379.481 335.296 377.762 337.602 379.091Z" fill="#AE2C36"/>
<path d="M432.391 318.772C434.435 320.494 434.002 324.37 431.411 327.438C428.846 330.509 425.08 331.6 423.036 329.878C420.992 328.156 421.425 324.283 423.993 321.212C426.581 318.141 430.323 317.053 432.391 318.772Z" fill="#AE2C36"/>
<path d="M392.513 319.796C396.276 324.501 393.406 333.037 386.096 338.894C378.785 344.728 369.8 345.664 366.034 340.962C362.295 336.259 365.165 327.724 372.475 321.867C379.786 316.03 388.751 315.093 392.513 319.796Z" fill="#349370"/>
<path d="M467.114 458.589C474.448 463.292 487.021 471.414 485.739 473.787C484.584 475.946 472.555 472.438 464.026 469.76C463.157 469.498 462.307 469.239 461.522 468.978C447.119 464.446 426.561 456.978 401.975 444.459L406.174 436.661L410.352 428.888C410.373 428.911 410.416 428.911 410.44 428.931C433.891 438.907 451.604 448.879 464.026 456.653C465.09 457.304 466.137 457.958 467.114 458.589Z" fill="#604533"/>
<path d="M444.662 389.694C446.642 392.373 437.939 403.479 410.439 428.911V428.931C410.416 428.911 410.376 428.911 410.352 428.888L398.125 423.162C396.493 420.789 387.813 408.876 370.494 404.13C364.858 402.586 359.659 402.17 355.158 402.345V402.325C356.877 400.908 358.552 399.146 359.901 396.968C364.775 389.15 360.77 383.988 364.751 377.587C369.363 370.183 378.13 371.643 393.818 365.481C403.716 361.604 411.07 356.747 415.595 353.374C420.73 349.171 427.474 348.211 432.545 350.957C436.613 353.179 439.809 358.231 439.809 363.064C439.832 368.683 435.653 371.576 437.395 375.171C438.721 377.936 441.964 377.782 442.245 380.028C442.618 383.075 436.828 385.254 437.395 387.278C437.919 389.214 443.444 388.06 444.662 389.694Z" fill="#F2778D"/>
<path d="M422.863 496.652C423.189 504.711 414.247 511.001 413.183 511.722C404.805 517.469 395.384 515.421 392.252 514.508C396.213 506.54 398.106 497.874 396.233 488.989C395.756 486.767 395.082 484.656 394.276 482.696C392.49 478.426 389.815 474.747 386.529 471.764L386.553 471.743C394.927 463.141 405.893 460.113 413.183 464.034C413.901 464.403 418.644 466.95 420.45 472.025C422.145 476.815 419.557 479.081 420.45 486.616C421.168 492.624 422.712 492.691 422.863 496.652Z" fill="#F9B132"/>
<path d="M410.352 428.888L406.177 436.662L401.978 444.459L389.727 438.753L393.926 430.959L398.124 423.162L410.352 428.888Z" fill="#FBE2AE"/>
<path d="M393.926 430.959L389.727 438.753C386.702 438.971 371.279 439.625 356.789 429.563C343.713 420.463 340.188 408.551 339.406 405.547C341.363 404.762 347.13 402.627 355.158 402.345C359.659 402.17 364.858 402.587 370.494 404.13C387.813 408.877 396.493 420.789 398.125 423.162L393.926 430.959Z" fill="#F6A7B7"/>
<path d="M363.403 524.111C363.685 522.326 363.47 520.604 362.709 519.06C359.704 513.072 349.524 512.112 339.972 516.905C330.399 521.671 325.069 530.405 328.049 536.393C328.832 537.937 330.073 539.135 331.661 540.008C336.253 542.488 343.694 542.095 350.786 538.548C357.879 534.976 362.665 529.27 363.403 524.111ZM396.233 488.989C398.106 497.874 396.213 506.54 392.252 514.508C389.926 519.191 386.879 523.631 383.441 527.726C375.48 537.262 365.404 544.948 357.486 549.523C322.699 569.578 266.763 565.503 236.414 527.726C212.785 498.307 208.868 453.669 229.147 423.598C231.061 420.769 242.57 403.718 260.648 395.813C267.196 392.94 274.594 391.262 282.73 391.936C283.428 391.98 284.123 392.047 284.841 392.134C298.788 393.897 309.122 401.845 315.671 408.702C320.175 413.428 323.156 419.352 324.482 425.753C325.962 432.939 329.922 444.046 340.539 452.669C349.155 459.657 358.442 462.01 365.515 462.661C373.432 463.379 380.897 466.561 386.529 471.764C389.815 474.748 392.491 478.426 394.276 482.696C395.082 484.656 395.756 486.767 396.233 488.989ZM353.418 485.438C355.898 483.26 355.898 477.819 353.482 474.311C351.068 470.807 346.631 470.478 342.801 470.216C342.714 470.216 334.665 469.673 331.728 472.133C325.962 476.97 328.093 489.553 333.903 496.088C335.142 497.481 338.384 501.16 342.539 500.68C343.17 500.616 345.607 500.354 346.889 498.505C349.306 495.041 344.782 490.013 346.957 487.378C348.48 485.549 351.219 487.378 353.418 485.438ZM311.448 482.283C313.385 479.43 310.404 472.244 304.923 469.303C299.657 466.474 292.434 467.692 290.021 471.371C288.366 473.918 290.326 475.815 288.822 480.279C286.929 485.894 282.71 486.267 282.774 489.576C282.841 493.779 289.739 497.719 295.633 498.417C297.046 498.592 303.812 499.656 305.793 496.434C307.817 493.148 302.987 488.358 305.249 485.2C306.86 482.934 310.035 484.371 311.448 482.283ZM296.546 434.419C296.895 429.042 287.909 422.618 284.234 424.424C281.754 425.622 283.274 429.761 280.012 432.134C276.705 434.53 273.114 431.785 270.375 434.225C268.744 435.661 268.677 437.86 268.546 442.237C268.395 446.852 268.482 451.427 271.614 454.736C272.899 456.085 274.42 456.498 275.967 456.915C280.079 458.002 285.885 457.304 287.846 454.018C289.366 451.49 287.127 449.903 287.846 446.003C289.04 439.558 296.243 439.014 296.546 434.419ZM285.06 524.155C284.536 517.294 289.302 515.139 287.846 511.33C286.496 507.822 280.797 505.993 276.356 506.735C268.808 507.977 264.39 516.794 265.478 521.977C265.565 522.413 265.696 523.151 266.307 524.481C267.196 526.397 268.415 529.163 269.831 532.865C270.634 536.48 274.161 538.135 276.356 537.218C277.293 536.829 277.293 536.044 278.531 534.738C281.253 531.885 284.278 532.952 285.667 530.925C286.822 529.25 285.342 527.746 285.06 524.155ZM255.21 483.021C254.71 478.775 259.691 476.882 259.104 473.418C258.56 470.132 253.21 467.323 248.749 467.887C241.157 468.823 238.304 479.232 237.871 480.954C237.391 482.847 236.652 485.938 237.804 489.553C238.022 490.271 240.395 497.306 246.574 498.374C252.837 499.441 259.255 493.712 259.06 489.664C258.929 486.831 255.603 486.398 255.21 483.021Z" fill="#FBE2AE"/>
<path d="M362.709 519.06C363.47 520.604 363.685 522.326 363.403 524.111C358.812 521.627 351.394 522 344.302 525.571C337.189 529.119 332.423 534.845 331.661 540.008C330.073 539.135 328.832 537.937 328.05 536.393C325.069 530.405 330.399 521.671 339.972 516.905C349.524 512.112 359.705 513.072 362.709 519.06Z" fill="#F2B662"/>
<path d="M353.48 474.311C355.897 477.819 355.897 483.26 353.416 485.438C351.218 487.378 348.479 485.549 346.955 487.378C344.78 490.013 349.305 495.041 346.888 498.505C345.606 500.354 343.169 500.616 342.538 500.68C338.383 501.16 335.14 497.481 333.902 496.088C328.092 489.553 325.96 476.969 331.727 472.133C334.664 469.673 342.713 470.216 342.8 470.216C346.63 470.478 351.067 470.807 353.48 474.311Z" fill="#F2778D"/>
<mask id="mask1_227_16513" style="mask-type:luminance" maskUnits="userSpaceOnUse" x="260" y="299" width="84" height="98">
<path d="M260.355 299.955H343.704V396.119H260.355V299.955Z" fill="white"/>
</mask>
<g mask="url(#mask1_227_16513)">
<path d="M260.627 300.113H342.951C340.253 302.573 335.815 307.343 333.271 314.637C328.374 328.724 334.379 341.116 335.685 343.707C338.078 348.735 337.034 354.659 333.271 358.231C328.831 362.433 321.413 362.607 316.321 358.231C312.622 354.072 306.49 353.068 301.791 355.814C297.263 358.425 295.088 363.89 296.481 368.965C296.981 370.794 297.481 372.623 297.548 374.516C297.612 377.349 297.088 381.202 294.524 384.861C291.02 389.845 285.884 391.413 282.729 391.916V391.936C274.593 391.262 267.196 392.94 260.647 395.813L260.627 395.79V300.113Z" fill="#F47A21"/>
</g>
<path d="M304.924 469.303C310.405 472.243 313.385 479.43 311.449 482.283C310.035 484.37 306.86 482.934 305.249 485.199C302.987 488.358 307.817 493.148 305.793 496.434C303.813 499.656 297.046 498.592 295.633 498.417C289.739 497.719 282.841 493.779 282.774 489.576C282.71 486.267 286.929 485.894 288.823 480.279C290.326 475.815 288.366 473.918 290.021 471.371C292.434 467.692 299.657 466.474 304.924 469.303Z" fill="#349370"/>
<path d="M284.233 424.424C287.908 422.618 296.894 429.042 296.544 434.419C296.242 439.014 289.039 439.558 287.844 446.003C287.126 449.903 289.365 451.49 287.844 454.018C285.884 457.304 280.078 458.002 275.966 456.914C274.419 456.498 272.898 456.085 271.612 454.736C268.481 451.427 268.394 446.852 268.545 442.237C268.676 437.86 268.743 435.661 270.374 434.225C273.113 431.785 276.704 434.53 280.01 432.134C283.273 429.761 281.752 425.622 284.233 424.424Z" fill="#AE2C36"/>
<path d="M287.846 511.33C289.302 515.139 284.536 517.294 285.06 524.155C285.342 527.746 286.822 529.25 285.667 530.925C284.278 532.952 281.253 531.885 278.531 534.738C277.293 536.044 277.293 536.829 276.356 537.218C274.161 538.135 270.634 536.48 269.831 532.865C268.415 529.163 267.196 526.397 266.307 524.48C265.696 523.151 265.565 522.413 265.478 521.976C264.39 516.794 268.808 507.977 276.356 506.735C280.797 505.993 286.496 507.822 287.846 511.33Z" fill="#3B5489"/>
<path d="M259.104 473.418C259.691 476.882 254.71 478.775 255.21 483.021C255.603 486.398 258.929 486.831 259.06 489.664C259.255 493.712 252.837 499.441 246.574 498.374C240.395 497.306 238.022 490.271 237.804 489.553C236.652 485.938 237.391 482.847 237.871 480.954C238.304 479.232 241.157 468.823 248.749 467.887C253.21 467.323 258.56 470.132 259.104 473.418Z" fill="#F47A21"/>
<path d="M393.927 433.134C393.618 433.134 393.306 433.07 393.01 432.929L375.802 424.917C374.711 424.414 374.238 423.118 374.744 422.027C375.251 420.933 376.55 420.466 377.638 420.973L394.846 428.985C395.934 429.489 396.407 430.784 395.9 431.875C395.531 432.671 394.746 433.134 393.927 433.134Z" fill="#FBE2AE"/>
</svg>
