<svg width="589" height="736" viewBox="0 0 589 736" fill="none" xmlns="http://www.w3.org/2000/svg">
<mask id="mask0_227_16565" style="mask-type:luminance" maskUnits="userSpaceOnUse" x="193" y="220" width="203" height="295">
<path d="M193.424 220.982H395.574V514.944H193.424V220.982Z" fill="white"/>
</mask>
<g mask="url(#mask0_227_16565)">
<path d="M393.572 277.244L342.906 234.796L342.795 234.728L278.038 221.226C276.059 220.814 274.067 221.794 273.184 223.611L246.947 277.721C246.45 278.734 246.373 279.887 246.708 280.966L262.93 332.08C263.026 332.387 263.16 332.682 263.322 332.955C262.174 332.549 260.888 333.051 260.342 334.164L250.548 354.359C250.267 354.941 250.227 355.597 250.438 356.208C250.645 356.815 251.088 357.312 251.667 357.59L255.215 359.311L194.557 484.414C193.801 485.976 193.699 487.731 194.264 489.366C194.656 490.493 195.335 491.459 196.224 492.2L194.886 494.957C193.725 497.357 194.727 500.253 197.125 501.414L223.68 514.291C224.359 514.621 225.072 514.774 225.777 514.774C227.575 514.774 229.296 513.775 230.137 512.054L231.472 509.297C231.906 509.388 232.338 509.436 232.781 509.436C235.187 509.436 237.502 508.093 238.621 505.784L299.277 380.69L301.768 381.894C302.103 382.053 302.466 382.138 302.816 382.138C303.711 382.138 304.58 381.635 305 380.772L314.791 360.578C315.206 359.717 315.058 358.738 314.504 358.033C314.973 358.011 315.442 357.934 315.891 357.766L366.067 338.844C367.124 338.446 367.976 337.668 368.473 336.649L394.714 282.534C395.588 280.714 395.12 278.544 393.572 277.244Z" fill="black"/>
</g>
<path d="M255.71 359.095L255.648 359.067L194.811 484.533C193.322 487.611 194.609 491.325 197.685 492.816L230.086 508.527C230.956 508.947 231.879 509.149 232.782 509.149C235.083 509.149 237.301 507.863 238.369 505.659L299.181 380.25L299.206 380.187L255.71 359.095ZM270.654 387.266L268.135 392.457C267.708 393.331 266.652 393.7 265.777 393.274C264.902 392.849 264.533 391.792 264.959 390.918L267.478 385.727C267.68 385.298 268.044 384.986 268.484 384.83C268.933 384.676 269.407 384.705 269.836 384.906C270.262 385.111 270.577 385.474 270.731 385.914C270.884 386.363 270.856 386.837 270.654 387.266Z" fill="#6D86DD"/>
<path d="M393.398 277.462L342.724 235.006L277.976 221.499C276.129 221.115 274.26 222.03 273.437 223.73L247.196 277.846C246.736 278.797 246.659 279.873 246.98 280.89L263.202 332.004C263.546 333.074 264.316 333.969 265.33 334.457L312.547 357.355C313.112 357.627 313.729 357.766 314.345 357.766C314.834 357.766 315.331 357.681 315.794 357.499L365.971 338.577C366.962 338.208 367.76 337.472 368.223 336.521L394.46 282.406C395.279 280.708 394.847 278.672 393.398 277.462Z" fill="#F9E7E5"/>
<path d="M196.636 492.152L231.318 508.967L231.29 509.03L229.892 511.92C229.108 513.542 227.478 514.487 225.785 514.487C225.12 514.487 224.441 514.34 223.805 514.033L197.252 501.153C194.991 500.057 194.048 497.328 195.139 495.068L196.574 492.118L196.636 492.152ZM342.486 298.259C339.094 288.48 332.098 280.603 322.781 276.091C313.462 271.57 302.949 270.954 293.17 274.347C283.39 277.741 275.513 284.737 271.002 294.054C266.483 303.37 265.867 313.885 269.261 323.664C272.289 332.387 278.186 339.599 286.034 344.259L263.455 333.31C262.39 332.793 261.112 333.242 260.601 334.304L250.807 354.498C250.29 355.563 250.736 356.844 251.801 357.355L301.893 381.641C302.194 381.789 302.509 381.857 302.824 381.857C303.614 381.857 304.384 381.411 304.753 380.656L314.547 360.458C315.064 359.396 314.618 358.116 313.556 357.605L292.03 347.169C300.549 350.449 309.86 350.611 318.583 347.587C328.363 344.197 336.24 337.2 340.753 327.884C345.264 318.55 345.88 308.038 342.486 298.259Z" fill="#DB639C"/>
<path d="M390.712 280.461C390.678 280.657 390.502 280.799 390.3 280.799C390.272 280.799 390.243 280.799 390.215 280.79L326.656 268.157C326.588 268.143 326.517 268.109 326.469 268.066L277.403 225.905C277.32 225.837 277.269 225.732 277.258 225.619C277.249 225.508 277.283 225.403 277.354 225.312C277.508 225.136 277.766 225.116 277.948 225.269L326.929 267.354L390.382 279.964C390.607 280.015 390.754 280.231 390.712 280.461ZM363.256 335.527L299.803 322.917L250.821 280.833C250.645 280.685 250.381 280.699 250.228 280.875C250.072 281.049 250.094 281.316 250.268 281.469L299.334 323.621C299.391 323.673 299.453 323.698 299.521 323.712L363.08 336.348C363.108 336.354 363.137 336.354 363.165 336.354C363.367 336.354 363.537 336.215 363.577 336.019C363.628 335.794 363.48 335.57 363.256 335.527ZM271.764 380.934C270.171 380.159 268.239 380.829 267.464 382.425L257.09 403.823C256.713 404.598 256.661 405.473 256.943 406.285C257.221 407.097 257.803 407.753 258.579 408.125C259.028 408.341 259.502 408.446 259.985 408.446C260.343 408.446 260.698 408.392 261.042 408.264C261.854 407.986 262.51 407.404 262.882 406.629L273.256 385.23C274.031 383.643 273.361 381.712 271.764 380.934ZM302.356 318.391C302.515 318.391 302.663 318.3 302.734 318.153L325.154 272.397C325.259 272.187 325.168 271.934 324.958 271.837C324.748 271.732 324.495 271.823 324.398 272.025L301.978 317.781C301.873 317.991 301.964 318.243 302.174 318.34C302.228 318.377 302.294 318.391 302.356 318.391Z" fill="white"/>
<path d="M390.865 283.476L366.283 335.15L315.885 354.745L265.168 330.479L298.529 324.896L390.865 283.476ZM276.402 228.614L252.457 277.593L285.392 305.735L276.402 228.614ZM340.898 237.377L328.175 264.787L389.521 276.852L340.898 237.377Z" fill="#6D86DD" fill-opacity="0.2"/>
<mask id="mask1_227_16565" style="mask-type:luminance" maskUnits="userSpaceOnUse" x="193" y="220" width="203" height="295">
<path d="M193.424 220.982H395.574V514.944H193.424V220.982Z" fill="white"/>
</mask>
<g mask="url(#mask1_227_16565)">
<path d="M393.572 277.244L342.906 234.796L342.795 234.728L278.038 221.226C276.059 220.814 274.067 221.794 273.184 223.611L246.947 277.721C246.45 278.734 246.373 279.887 246.708 280.966L262.93 332.08C263.026 332.387 263.16 332.682 263.322 332.955C262.174 332.549 260.888 333.051 260.342 334.164L250.548 354.359C250.267 354.941 250.227 355.597 250.438 356.208C250.645 356.815 251.088 357.312 251.667 357.59L255.215 359.311L194.557 484.414C193.801 485.976 193.699 487.731 194.264 489.366C194.656 490.493 195.335 491.459 196.224 492.2L194.886 494.957C193.725 497.357 194.727 500.253 197.125 501.414L223.68 514.291C224.359 514.621 225.072 514.774 225.777 514.774C227.575 514.774 229.296 513.775 230.137 512.054L231.472 509.297C231.906 509.388 232.338 509.436 232.781 509.436C235.187 509.436 237.502 508.093 238.621 505.784L299.277 380.69L301.768 381.894C302.103 382.053 302.466 382.138 302.816 382.138C303.711 382.138 304.58 381.635 305 380.772L314.791 360.578C315.206 359.717 315.058 358.738 314.504 358.033C314.973 358.011 315.442 357.934 315.891 357.766L366.067 338.844C367.124 338.446 367.976 337.668 368.473 336.649L394.714 282.534C395.588 280.714 395.12 278.544 393.572 277.244ZM223.987 513.655L197.434 500.775C195.384 499.784 194.523 497.308 195.517 495.258L196.77 492.683L197.551 493.06C197.551 493.06 197.559 493.06 197.559 493.069L198.224 493.39L229.549 511.662L229.515 511.739C228.512 513.789 226.038 514.649 223.987 513.655ZM237.991 505.469C236.599 508.331 233.145 509.535 230.276 508.15L197.866 492.439C196.483 491.766 195.44 490.593 194.929 489.136C194.426 487.682 194.517 486.106 195.188 484.724L255.843 359.626L255.871 359.641L295.311 387.252L237.991 505.469ZM314.155 360.271L304.364 380.465C303.949 381.32 302.921 381.675 302.069 381.263L299.262 379.906L255.829 358.851L251.969 356.977C251.114 356.562 250.758 355.535 251.17 354.683L260.964 334.485C261.376 333.633 262.404 333.276 263.259 333.687L264.484 334.284C264.7 334.443 264.938 334.59 265.188 334.718L312.408 357.613C312.652 357.732 312.902 357.823 313.164 357.891L313.351 357.982C314.212 358.383 314.57 359.416 314.155 360.271ZM394.077 282.224L367.837 336.34C367.425 337.194 366.704 337.85 365.815 338.185L315.638 357.108C314.933 357.375 314.163 357.417 313.442 357.235L295.732 348.643C299.066 349.546 302.452 349.995 305.818 349.995C320.31 349.995 334.268 341.888 341.003 327.994C350.391 308.626 342.276 285.234 322.906 275.838C303.537 266.442 280.146 274.566 270.75 293.929C266.202 303.308 265.58 313.899 268.994 323.755C271.591 331.24 276.283 337.606 282.504 342.237L264.853 333.682C264.265 333.227 263.819 332.597 263.595 331.876L247.373 280.756C247.086 279.853 247.157 278.882 247.569 278.027L273.806 223.912C274.437 222.617 275.738 221.828 277.129 221.828C277.382 221.828 277.635 221.856 277.885 221.905L342.514 235.384L393.117 277.783C394.427 278.874 394.819 280.699 394.077 282.224ZM289.147 345.454C279.936 340.985 273.011 333.199 269.659 323.525C266.302 313.851 266.918 303.45 271.38 294.235C280.6 275.216 303.58 267.24 322.6 276.469C341.619 285.688 349.587 308.666 340.367 327.688C331.147 346.707 308.167 354.674 289.147 345.454ZM271.883 380.681C270.148 379.844 268.051 380.571 267.205 382.305L256.829 403.704C256.425 404.544 256.368 405.496 256.67 406.376C256.971 407.256 257.607 407.972 258.445 408.378C258.928 408.608 259.445 408.727 259.97 408.727C260.356 408.727 260.748 408.665 261.118 408.531C261.998 408.222 262.714 407.594 263.117 406.754L273.494 385.355C274.354 383.62 273.624 381.522 271.883 380.681ZM272.877 385.054L262.504 406.453C262.174 407.126 261.606 407.628 260.902 407.881C260.195 408.125 259.433 408.083 258.76 407.753C258.09 407.427 257.578 406.859 257.334 406.152C257.09 405.445 257.13 404.684 257.459 404.011L267.833 382.612C268.315 381.621 269.315 381.033 270.358 381.033C270.772 381.033 271.184 381.124 271.576 381.312C272.968 381.985 273.556 383.663 272.877 385.054ZM270.017 384.529C269.491 384.279 268.898 384.242 268.344 384.432C267.79 384.62 267.35 385.02 267.091 385.545L264.575 390.736C264.322 391.258 264.288 391.855 264.475 392.406C264.665 392.959 265.063 393.399 265.589 393.658C265.895 393.805 266.216 393.876 266.54 393.876C267.35 393.876 268.134 393.422 268.511 392.644L271.031 387.453C271.281 386.928 271.318 386.335 271.128 385.781C270.932 385.222 270.54 384.782 270.017 384.529ZM270.4 387.147L267.881 392.337C267.526 393.07 266.637 393.385 265.895 393.022C265.163 392.667 264.847 391.77 265.202 391.034L267.722 385.846C267.895 385.489 268.196 385.222 268.574 385.088C268.736 385.034 268.898 385.006 269.065 385.006C269.29 385.006 269.506 385.054 269.716 385.153C270.071 385.327 270.338 385.628 270.471 386C270.602 386.369 270.568 386.783 270.4 387.147Z" fill="black"/>
</g>
</svg>
