<svg xmlns="http://www.w3.org/2000/svg" xmlns:xlink="http://www.w3.org/1999/xlink" zoomAndPan="magnify" preserveAspectRatio="xMidYMid meet" version="1.2" viewBox="252.55 349.09 312.88 323.09"><defs><clipPath id="d44fae73a5"><path d="M 252 462 L 439 462 L 439 672.265625 L 252 672.265625 Z M 252 462 "/></clipPath><clipPath id="25e2c9b92f"><path d="M 345 462 L 456 462 L 456 672.265625 L 345 672.265625 Z M 345 462 "/></clipPath></defs><g id="e00b8c7120"><path style=" stroke:none;fill-rule:nonzero;fill:#fcbd78;fill-opacity:1;" d="M 503.621094 637.273438 C 503.476562 640.988281 503.484375 644.253906 505.164062 647.570312 C 506.84375 650.886719 510.078125 653.597656 513.789062 653.839844 C 516.9375 654.046875 520.21875 652.074219 521.300781 649.207031 C 521.554688 648.539062 522.324219 648.285156 522.890625 648.714844 C 525.800781 650.917969 530.003906 651.390625 533.277344 649.722656 C 536.5625 648.046875 538.652344 644.34375 538.550781 640.679688 C 538.535156 639.984375 539.175781 639.484375 539.84375 639.679688 C 544.261719 640.980469 549.667969 638.410156 551.113281 633.960938 C 552.726562 629 548.578125 620.746094 538.484375 618.910156 C 536.269531 614.632812 532.746094 611.042969 528.507812 608.753906 C 517.152344 615.15625 504.136719 624.042969 503.621094 637.273438 Z M 503.621094 637.273438 "/><path style=" stroke:none;fill-rule:nonzero;fill:#703627;fill-opacity:1;" d="M 514.242188 655.75 C 514.050781 655.75 513.855469 655.742188 513.664062 655.730469 C 509.523438 655.460938 505.617188 652.660156 503.46875 648.425781 C 501.59375 644.722656 501.570312 641.152344 501.726562 637.199219 C 501.765625 636.152344 502.667969 635.296875 503.695312 635.382812 C 504.742188 635.421875 505.558594 636.304688 505.515625 637.347656 C 505.378906 640.882812 505.390625 643.820312 506.855469 646.714844 C 508.375 649.714844 511.144531 651.765625 513.914062 651.949219 C 516.265625 652.097656 518.746094 650.605469 519.527344 648.539062 C 519.859375 647.65625 520.589844 646.976562 521.476562 646.722656 C 522.363281 646.464844 523.296875 646.640625 524.039062 647.203125 C 526.410156 649 529.851562 649.339844 532.414062 648.035156 C 534.992188 646.722656 536.734375 643.71875 536.65625 640.730469 C 536.632812 639.796875 537.054688 638.902344 537.789062 638.339844 C 538.523438 637.777344 539.488281 637.597656 540.382812 637.863281 C 543.945312 638.910156 548.207031 636.773438 549.308594 633.378906 C 549.777344 631.933594 549.160156 629.601562 547.695312 627.292969 C 545.699219 624.152344 541.742188 620.570312 536.625 619.921875 C 535.585938 619.789062 534.847656 618.84375 534.980469 617.804688 C 535.113281 616.765625 536.066406 616.035156 537.101562 616.160156 C 543.523438 616.972656 548.4375 621.394531 550.898438 625.261719 C 553.015625 628.597656 553.753906 631.980469 552.917969 634.546875 C 551.304688 639.519531 545.648438 642.671875 540.421875 641.757812 C 540.128906 645.808594 537.703125 649.59375 534.136719 651.410156 C 530.582031 653.226562 526.089844 652.96875 522.636719 650.835938 C 521.0625 653.75 517.6875 655.75 514.242188 655.75 Z M 514.242188 655.75 "/><path style=" stroke:none;fill-rule:nonzero;fill:#fcbd78;fill-opacity:1;" d="M 430.835938 632.292969 C 431.421875 635.964844 431.796875 639.207031 430.523438 642.699219 C 429.25 646.191406 426.359375 649.261719 422.699219 649.945312 C 419.597656 650.519531 416.105469 648.949219 414.691406 646.230469 C 414.363281 645.597656 413.566406 645.4375 413.054688 645.929688 C 410.425781 648.460938 406.308594 649.425781 402.863281 648.15625 C 399.402344 646.882812 396.890625 643.453125 396.554688 639.804688 C 396.488281 639.109375 395.792969 638.6875 395.152344 638.960938 C 390.917969 640.773438 385.246094 638.863281 383.285156 634.617188 C 381.097656 629.878906 384.234375 621.191406 394.042969 618.175781 C 395.734375 613.667969 398.808594 609.6875 402.746094 606.910156 C 414.78125 611.929688 428.757812 619.214844 430.835938 632.292969 Z M 430.835938 632.292969 "/><path style=" stroke:none;fill-rule:nonzero;fill:#703627;fill-opacity:1;" d="M 421.402344 651.957031 C 418.324219 651.957031 415.265625 650.433594 413.558594 648.007812 C 410.382812 650.53125 405.949219 651.3125 402.207031 649.9375 C 398.453125 648.554688 395.59375 645.082031 394.824219 641.09375 C 389.742188 642.621094 383.753906 640.15625 381.5625 635.410156 C 380.429688 632.957031 380.761719 629.511719 382.472656 625.949219 C 384.453125 621.816406 388.8125 616.847656 395.09375 615.285156 C 396.105469 615.027344 397.140625 615.648438 397.390625 616.664062 C 397.644531 617.679688 397.027344 618.710938 396.011719 618.960938 C 391.007812 620.207031 387.503906 624.234375 385.894531 627.589844 C 384.710938 630.054688 384.371094 632.441406 385.007812 633.820312 C 386.503906 637.066406 390.984375 638.683594 394.402344 637.21875 C 395.257812 636.851562 396.242188 636.914062 397.035156 637.386719 C 397.832031 637.863281 398.355469 638.699219 398.441406 639.628906 C 398.714844 642.605469 400.804688 645.378906 403.519531 646.378906 C 406.21875 647.375 409.597656 646.628906 411.738281 644.566406 C 412.410156 643.917969 413.316406 643.636719 414.226562 643.785156 C 415.136719 643.933594 415.941406 644.519531 416.375 645.359375 C 417.394531 647.316406 420.023438 648.511719 422.351562 648.082031 C 425.082031 647.574219 427.589844 645.207031 428.742188 642.050781 C 429.855469 639 429.519531 636.082031 428.964844 632.589844 C 428.800781 631.554688 429.503906 630.585938 430.539062 630.421875 C 431.589844 630.257812 432.546875 630.960938 432.710938 631.996094 C 433.332031 635.902344 433.730469 639.449219 432.304688 643.347656 C 430.679688 647.804688 427.132812 651.046875 423.046875 651.804688 C 422.503906 651.90625 421.949219 651.957031 421.402344 651.957031 Z M 421.402344 651.957031 "/><path style=" stroke:none;fill-rule:nonzero;fill:#feeddc;fill-opacity:1;" d="M 525.109375 524.410156 C 538.394531 521.894531 551.273438 515.488281 558.5 504.640625 C 566.914062 492.019531 562.167969 476.429688 562.476562 461.226562 C 563.035156 433.523438 562.753906 419.554688 553.488281 400.855469 C 530.335938 354.148438 475.101562 341.324219 436.550781 357.890625 C 417.363281 366.132812 408.09375 376.59375 390.554688 398.058594 C 380.925781 409.835938 367.207031 418.640625 365.425781 433.699219 C 363.898438 446.640625 369.554688 459.855469 377.527344 471.515625 C 399.207031 479.644531 417.300781 494.90625 436.789062 507.40625 C 456.273438 519.910156 479.675781 533.019531 525.109375 524.410156 Z M 525.109375 524.410156 "/><path style=" stroke:none;fill-rule:nonzero;fill:#feeddc;fill-opacity:1;" d="M 412.554688 623.460938 C 444.703125 644.652344 488.675781 646.40625 522.410156 627.839844 C 532.835938 622.101562 542.394531 614.484375 549.191406 604.722656 C 558.839844 590.855469 562.347656 573.464844 562.109375 556.578125 C 561.871094 539.691406 557.65625 528.570312 553.695312 507.265625 C 534.015625 490.515625 506.035156 487.289062 480.300781 489.757812 C 450.988281 492.574219 421.0625 502.671875 401.246094 524.433594 C 381.429688 546.195312 365.296875 592.308594 412.554688 623.460938 Z M 412.554688 623.460938 "/><path style=" stroke:none;fill-rule:nonzero;fill:#703627;fill-opacity:1;" d="M 525.109375 526.304688 C 524.214844 526.304688 523.417969 525.671875 523.246094 524.761719 C 523.050781 523.734375 523.726562 522.742188 524.757812 522.546875 C 539.171875 519.816406 550.597656 513.085938 556.921875 503.589844 C 562.621094 495.039062 561.890625 484.882812 561.113281 474.132812 C 560.808594 469.902344 560.492188 465.527344 560.578125 461.191406 C 561.125 434.089844 560.980469 420.242188 551.789062 401.699219 C 528.753906 355.222656 474.425781 343.675781 437.300781 359.632812 C 418.273438 367.808594 409.179688 378.261719 392.023438 399.257812 C 389.277344 402.617188 386.199219 405.746094 383.222656 408.769531 C 375.660156 416.457031 368.515625 423.714844 367.3125 433.921875 C 365.972656 445.25 370.308594 457.769531 379.519531 469.183594 C 380.175781 469.996094 380.046875 471.191406 379.230469 471.847656 C 378.417969 472.503906 377.21875 472.375 376.566406 471.5625 C 366.710938 459.347656 362.085938 445.824219 363.542969 433.476562 C 364.898438 421.984375 372.839844 413.914062 380.515625 406.113281 C 383.433594 403.148438 386.449219 400.085938 389.085938 396.859375 C 406.164062 375.960938 415.996094 364.660156 435.800781 356.148438 C 474.519531 339.515625 531.171875 351.554688 555.1875 400.015625 C 564.753906 419.316406 564.914062 434.292969 564.371094 461.265625 C 564.289062 465.429688 564.597656 469.714844 564.898438 473.863281 C 565.6875 484.773438 566.5 496.058594 560.082031 505.691406 C 553.183594 516.039062 540.890625 523.347656 525.464844 526.273438 C 525.34375 526.296875 525.226562 526.304688 525.109375 526.304688 Z M 525.109375 526.304688 "/><path style=" stroke:none;fill-rule:nonzero;fill:#fcbd78;fill-opacity:1;" d="M 477.191406 465.046875 C 480.046875 467.035156 482.925781 469.109375 486.21875 470.238281 C 489.515625 471.363281 493.65625 471.035156 495.820312 468.3125 C 497.785156 465.84375 497.5 462.214844 496.230469 459.324219 C 494.964844 456.4375 492.878906 453.992188 491.324219 451.246094 C 488.828125 446.84375 487.761719 441.757812 485.375 437.296875 C 483.582031 433.949219 480.652344 430.800781 477.152344 429.710938 C 474.132812 428.769531 470.246094 428.152344 465.535156 430.007812 C 460.820312 431.859375 456.710938 435.039062 451.953125 436.78125 C 448.992188 437.867188 445.816406 438.375 442.976562 439.757812 C 440.140625 441.136719 437.566406 443.71875 437.460938 446.871094 C 437.34375 450.347656 440.285156 453.277344 443.527344 454.550781 C 446.765625 455.824219 450.296875 456.191406 453.769531 456.441406 C 461.773438 457.019531 468.480469 458.980469 477.191406 465.046875 Z M 477.191406 465.046875 "/><path style=" stroke:none;fill-rule:nonzero;fill:#703627;fill-opacity:1;" d="M 489.863281 472.738281 C 488.386719 472.738281 486.917969 472.480469 485.605469 472.027344 C 482.226562 470.875 479.332031 468.855469 476.539062 466.902344 L 476.105469 466.601562 C 467.273438 460.449219 460.734375 458.847656 453.632812 458.332031 C 450.277344 458.089844 446.398438 457.714844 442.832031 456.3125 C 439.105469 454.847656 435.414062 451.339844 435.566406 446.804688 C 435.707031 442.644531 439.058594 439.554688 442.144531 438.054688 C 444.011719 437.144531 445.964844 436.597656 447.851562 436.066406 C 449.058594 435.726562 450.195312 435.40625 451.304688 435 C 453.628906 434.148438 455.792969 432.929688 458.085938 431.640625 C 460.234375 430.429688 462.453125 429.179688 464.839844 428.242188 C 470.378906 426.066406 474.839844 427.007812 477.714844 427.902344 C 481.363281 429.039062 484.765625 432.136719 487.046875 436.402344 C 488.253906 438.660156 489.136719 441.050781 489.984375 443.359375 C 490.894531 445.828125 491.753906 448.160156 492.972656 450.3125 C 493.554688 451.335938 494.214844 452.320312 494.914062 453.359375 C 496.007812 454.984375 497.136719 456.664062 497.96875 458.5625 C 499.347656 461.710938 499.898438 466.230469 497.308594 469.492188 C 495.460938 471.8125 492.648438 472.738281 489.863281 472.738281 Z M 471.664062 430.699219 C 470.046875 430.699219 468.234375 430.980469 466.226562 431.769531 C 464.085938 432.613281 462.078125 433.742188 459.949219 434.941406 C 457.625 436.25 455.222656 437.605469 452.609375 438.5625 C 451.363281 439.015625 450.101562 439.371094 448.878906 439.714844 C 447.074219 440.222656 445.367188 440.703125 443.808594 441.460938 C 441.808594 442.433594 439.441406 444.453125 439.355469 446.933594 C 439.265625 449.605469 441.816406 451.839844 444.222656 452.785156 C 447.289062 453.992188 450.6875 454.320312 453.90625 454.550781 C 461.632812 455.109375 468.730469 456.84375 478.277344 463.492188 L 478.710938 463.796875 C 481.289062 465.597656 483.960938 467.460938 486.835938 468.445312 C 489.28125 469.28125 492.667969 469.230469 494.335938 467.132812 C 495.882812 465.191406 495.386719 462.121094 494.496094 460.085938 C 493.800781 458.496094 492.808594 457.027344 491.765625 455.472656 C 491.054688 454.417969 490.324219 453.332031 489.671875 452.179688 C 488.300781 449.757812 487.347656 447.171875 486.425781 444.667969 C 485.582031 442.378906 484.785156 440.21875 483.699219 438.191406 C 481.910156 434.84375 479.25 432.351562 476.585938 431.519531 C 475.21875 431.09375 473.578125 430.699219 471.664062 430.699219 Z M 471.664062 430.699219 "/><path style=" stroke:none;fill-rule:nonzero;fill:#fcc3b2;fill-opacity:1;" d="M 549.011719 482.519531 C 549.011719 483.058594 548.960938 483.589844 548.855469 484.113281 C 548.75 484.640625 548.597656 485.152344 548.390625 485.648438 C 548.183594 486.144531 547.933594 486.613281 547.636719 487.0625 C 547.335938 487.507812 546.996094 487.917969 546.617188 488.300781 C 546.238281 488.679688 545.824219 489.015625 545.378906 489.316406 C 544.929688 489.613281 544.460938 489.867188 543.964844 490.070312 C 543.46875 490.277344 542.957031 490.429688 542.429688 490.535156 C 541.902344 490.640625 541.371094 490.691406 540.832031 490.691406 C 540.296875 490.691406 539.765625 490.640625 539.238281 490.535156 C 538.710938 490.429688 538.199219 490.277344 537.703125 490.070312 C 537.207031 489.867188 536.734375 489.613281 536.289062 489.316406 C 535.84375 489.015625 535.429688 488.679688 535.050781 488.300781 C 534.667969 487.917969 534.332031 487.507812 534.03125 487.0625 C 533.734375 486.613281 533.480469 486.144531 533.277344 485.648438 C 533.070312 485.152344 532.914062 484.640625 532.808594 484.113281 C 532.707031 483.589844 532.652344 483.058594 532.652344 482.519531 C 532.652344 481.984375 532.707031 481.453125 532.808594 480.925781 C 532.914062 480.398438 533.070312 479.886719 533.277344 479.390625 C 533.480469 478.898438 533.734375 478.425781 534.03125 477.980469 C 534.332031 477.535156 534.667969 477.121094 535.050781 476.742188 C 535.429688 476.363281 535.84375 476.023438 536.289062 475.726562 C 536.734375 475.425781 537.207031 475.175781 537.703125 474.96875 C 538.199219 474.765625 538.710938 474.609375 539.238281 474.503906 C 539.765625 474.398438 540.296875 474.347656 540.832031 474.347656 C 541.371094 474.347656 541.902344 474.398438 542.429688 474.503906 C 542.957031 474.609375 543.46875 474.765625 543.964844 474.96875 C 544.460938 475.175781 544.929688 475.425781 545.378906 475.726562 C 545.824219 476.023438 546.238281 476.363281 546.617188 476.742188 C 546.996094 477.121094 547.335938 477.535156 547.636719 477.980469 C 547.933594 478.425781 548.183594 478.898438 548.390625 479.390625 C 548.597656 479.886719 548.75 480.398438 548.855469 480.925781 C 548.960938 481.453125 549.011719 481.984375 549.011719 482.519531 Z M 549.011719 482.519531 "/><path style=" stroke:none;fill-rule:nonzero;fill:#fcc3b2;fill-opacity:1;" d="M 402.140625 428.554688 C 402.140625 429.089844 402.089844 429.621094 401.984375 430.148438 C 401.878906 430.675781 401.722656 431.1875 401.519531 431.683594 C 401.3125 432.179688 401.058594 432.648438 400.761719 433.09375 C 400.464844 433.542969 400.125 433.953125 399.746094 434.332031 C 399.363281 434.714844 398.953125 435.050781 398.503906 435.351562 C 398.058594 435.648438 397.585938 435.898438 397.089844 436.105469 C 396.59375 436.308594 396.082031 436.464844 395.554688 436.570312 C 395.03125 436.675781 394.496094 436.726562 393.960938 436.726562 C 393.421875 436.726562 392.890625 436.675781 392.363281 436.570312 C 391.839844 436.464844 391.328125 436.308594 390.832031 436.105469 C 390.332031 435.898438 389.863281 435.648438 389.414062 435.351562 C 388.96875 435.050781 388.554688 434.714844 388.175781 434.332031 C 387.796875 433.953125 387.457031 433.542969 387.160156 433.09375 C 386.859375 432.648438 386.609375 432.179688 386.402344 431.683594 C 386.199219 431.1875 386.042969 430.675781 385.9375 430.148438 C 385.832031 429.621094 385.78125 429.089844 385.78125 428.554688 C 385.78125 428.019531 385.832031 427.488281 385.9375 426.960938 C 386.042969 426.433594 386.199219 425.921875 386.402344 425.425781 C 386.609375 424.929688 386.859375 424.460938 387.160156 424.015625 C 387.457031 423.566406 387.796875 423.15625 388.175781 422.777344 C 388.554688 422.394531 388.96875 422.058594 389.414062 421.757812 C 389.863281 421.460938 390.332031 421.210938 390.832031 421.003906 C 391.328125 420.796875 391.839844 420.644531 392.363281 420.539062 C 392.890625 420.433594 393.421875 420.382812 393.960938 420.382812 C 394.496094 420.382812 395.03125 420.433594 395.554688 420.539062 C 396.082031 420.644531 396.59375 420.796875 397.089844 421.003906 C 397.585938 421.210938 398.058594 421.460938 398.503906 421.757812 C 398.953125 422.058594 399.363281 422.394531 399.746094 422.777344 C 400.125 423.15625 400.464844 423.566406 400.761719 424.015625 C 401.058594 424.460938 401.3125 424.929688 401.519531 425.425781 C 401.722656 425.921875 401.878906 426.433594 401.984375 426.960938 C 402.089844 427.488281 402.140625 428.019531 402.140625 428.554688 Z M 402.140625 428.554688 "/><path style=" stroke:none;fill-rule:nonzero;fill:#703627;fill-opacity:1;" d="M 527.378906 457.085938 C 529.90625 459.628906 532.554688 462.390625 533.210938 465.910156 C 533.441406 467.136719 533.367188 468.527344 532.542969 469.46875 C 531.683594 470.453125 530.195312 470.683594 528.925781 470.371094 C 527.65625 470.054688 526.554688 469.285156 525.5 468.515625 C 523.191406 466.835938 520.9375 465.066406 518.902344 463.0625 C 517.726562 461.90625 516.605469 460.628906 516.039062 459.082031 C 515.472656 457.535156 515.5625 455.65625 516.640625 454.410156 C 517.824219 453.046875 519.902344 452.765625 521.640625 453.25 C 523.382812 453.734375 525.003906 454.699219 527.378906 457.085938 Z M 527.378906 457.085938 "/><path style=" stroke:none;fill-rule:nonzero;fill:#703627;fill-opacity:1;" d="M 420.699219 417.890625 C 417.128906 418.1875 413.320312 418.578125 410.539062 420.835938 C 409.566406 421.625 408.722656 422.730469 408.738281 423.976562 C 408.757812 425.285156 409.738281 426.425781 410.910156 427.007812 C 412.082031 427.589844 413.417969 427.714844 414.722656 427.8125 C 417.574219 428.027344 420.4375 428.140625 423.285156 427.929688 C 424.929688 427.808594 426.613281 427.5625 428.046875 426.753906 C 429.480469 425.941406 430.628906 424.449219 430.617188 422.804688 C 430.601562 421 429.203125 419.4375 427.5625 418.679688 C 425.921875 417.925781 424.058594 417.609375 420.699219 417.890625 Z M 420.699219 417.890625 "/><path style=" stroke:none;fill-rule:nonzero;fill:#703627;fill-opacity:1;" d="M 471.363281 642.496094 C 450.238281 642.496094 429.089844 636.628906 411.507812 625.039062 C 410.636719 624.464844 410.394531 623.289062 410.972656 622.414062 C 411.546875 621.542969 412.726562 621.296875 413.597656 621.878906 C 445.085938 642.636719 488.445312 644.363281 521.496094 626.179688 C 532.734375 619.996094 541.527344 612.410156 547.632812 603.640625 C 558.363281 588.222656 560.398438 569.550781 560.214844 556.605469 C 560.042969 544.632812 557.855469 535.667969 555.316406 525.289062 C 554.332031 521.257812 553.3125 517.085938 552.34375 512.464844 C 552.132812 511.441406 552.789062 510.4375 553.8125 510.222656 C 554.839844 510.015625 555.84375 510.664062 556.058594 511.691406 C 557.011719 516.25 558.023438 520.386719 559.003906 524.390625 C 561.59375 534.992188 563.832031 544.148438 564.007812 556.550781 C 564.28125 575.914062 559.695312 592.945312 550.746094 605.804688 C 544.308594 615.058594 535.082031 623.03125 523.328125 629.5 C 507.527344 638.195312 489.453125 642.496094 471.363281 642.496094 Z M 471.363281 642.496094 "/><path style=" stroke:none;fill-rule:nonzero;fill:#c97f4d;fill-opacity:1;" d="M 394.628906 670.277344 L 432.480469 670.277344 C 435.839844 670.277344 438.585938 667.601562 438.671875 664.246094 L 441.535156 552.117188 C 441.605469 549.335938 442.375 546.617188 443.738281 544.191406 C 465.21875 505.871094 448.554688 484.070312 417.871094 471.972656 C 405.714844 467.175781 369.117188 464.25 346.484375 467.140625 C 354.253906 534.125 370.71875 600.097656 394.628906 670.277344 Z M 394.628906 670.277344 "/><path style=" stroke:none;fill-rule:nonzero;fill:#f2a775;fill-opacity:1;" d="M 287.796875 472.539062 C 258.792969 485.386719 243.078125 506.730469 264.066406 544.183594 C 265.425781 546.613281 266.199219 549.332031 266.273438 552.117188 L 269.136719 664.246094 C 269.222656 667.601562 271.96875 670.277344 275.328125 670.277344 L 415.261719 670.277344 C 418.621094 670.277344 421.367188 667.601562 421.453125 664.246094 L 424.316406 552.117188 C 424.386719 549.335938 425.160156 546.617188 426.519531 544.191406 C 448 505.871094 431.335938 484.070312 400.652344 471.972656 C 376.339844 462.382812 315.757812 460.160156 287.796875 472.539062 Z M 287.796875 472.539062 "/><g clip-rule="nonzero" clip-path="url(#d44fae73a5)"><path style=" stroke:none;fill-rule:nonzero;fill:#703627;fill-opacity:1;" d="M 415.261719 672.175781 L 275.328125 672.175781 C 270.90625 672.175781 267.351562 668.714844 267.238281 664.296875 L 264.375 552.167969 C 264.3125 549.730469 263.632812 547.289062 262.410156 545.109375 C 252.980469 528.28125 250.292969 513.464844 254.425781 501.074219 C 258.53125 488.753906 269.503906 478.570312 287.03125 470.808594 C 314.617188 458.589844 375.808594 460.136719 401.347656 470.207031 C 419.832031 477.496094 431.484375 487.589844 435.980469 500.207031 C 440.460938 512.769531 437.835938 527.882812 428.175781 545.117188 C 426.953125 547.292969 426.277344 549.730469 426.214844 552.167969 L 423.351562 664.296875 C 423.238281 668.714844 419.683594 672.175781 415.261719 672.175781 Z M 343.53125 465.855469 C 322.632812 465.855469 301.6875 468.460938 288.566406 474.273438 C 272.058594 481.585938 261.78125 491.003906 258.023438 502.269531 C 254.242188 513.609375 256.832031 527.398438 265.722656 543.257812 C 267.242188 545.972656 268.089844 549.019531 268.167969 552.070312 L 271.03125 664.199219 C 271.09375 666.546875 272.980469 668.382812 275.328125 668.382812 L 415.261719 668.382812 C 417.609375 668.382812 419.496094 666.546875 419.558594 664.199219 L 422.421875 552.070312 C 422.5 549.019531 423.34375 545.976562 424.863281 543.265625 C 433.964844 527.027344 436.503906 512.96875 432.40625 501.476562 C 428.292969 489.9375 417.375 480.601562 399.957031 473.734375 C 387.21875 468.710938 365.398438 465.855469 343.53125 465.855469 Z M 287.800781 472.539062 L 287.816406 472.539062 Z M 287.800781 472.539062 "/></g><path style=" stroke:none;fill-rule:nonzero;fill:#ffffff;fill-opacity:1;" d="M 298.382812 483.742188 C 275.03125 495.023438 262.378906 513.765625 279.277344 546.65625 C 280.371094 548.789062 280.996094 551.179688 281.054688 553.621094 L 283.359375 652.089844 C 283.425781 655.035156 285.640625 657.386719 288.34375 657.386719 L 401 657.386719 C 403.703125 657.386719 405.914062 655.035156 405.984375 652.089844 L 408.289062 553.621094 C 408.347656 551.179688 408.96875 548.792969 410.0625 546.660156 C 427.355469 513.011719 413.941406 493.867188 389.238281 483.242188 C 369.667969 474.824219 320.890625 472.871094 298.382812 483.742188 Z M 298.382812 483.742188 "/><path style=" stroke:none;fill-rule:nonzero;fill:#703627;fill-opacity:1;" d="M 401 659.28125 L 288.34375 659.28125 C 284.578125 659.28125 281.554688 656.140625 281.460938 652.132812 L 279.15625 553.667969 C 279.105469 551.542969 278.566406 549.417969 277.589844 547.519531 C 269.78125 532.328125 267.707031 519.003906 271.425781 507.914062 C 274.941406 497.421875 283.734375 488.714844 297.558594 482.035156 C 319.863281 471.257812 369.339844 472.621094 389.988281 481.503906 C 404.542969 487.761719 413.875 496.367188 417.726562 507.078125 C 421.773438 518.328125 419.761719 531.9375 411.75 547.527344 C 410.777344 549.421875 410.234375 551.546875 410.1875 553.667969 L 407.878906 652.132812 C 407.785156 656.140625 404.761719 659.28125 401 659.28125 Z M 299.210938 485.449219 C 286.15625 491.753906 278.246094 499.496094 275.023438 509.117188 C 271.644531 519.199219 273.640625 531.539062 280.964844 545.789062 C 282.199219 548.191406 282.886719 550.886719 282.949219 553.578125 L 285.253906 652.042969 C 285.300781 653.945312 286.683594 655.488281 288.34375 655.488281 L 401 655.488281 C 402.65625 655.488281 404.042969 653.945312 404.089844 652.042969 L 406.394531 553.578125 C 406.457031 550.890625 407.140625 548.199219 408.375 545.796875 C 415.886719 531.175781 417.832031 518.582031 414.15625 508.363281 C 410.671875 498.675781 402.039062 490.8125 388.488281 484.984375 C 368.519531 476.394531 320.726562 475.050781 299.210938 485.449219 Z M 299.210938 485.449219 "/><g clip-rule="nonzero" clip-path="url(#25e2c9b92f)"><path style=" stroke:none;fill-rule:nonzero;fill:#703627;fill-opacity:1;" d="M 432.480469 672.175781 L 394.628906 672.175781 C 393.578125 672.175781 392.730469 671.324219 392.730469 670.28125 C 392.730469 669.234375 393.578125 668.382812 394.628906 668.382812 L 432.480469 668.382812 C 434.828125 668.382812 436.714844 666.546875 436.777344 664.199219 L 439.640625 552.070312 C 439.714844 549.019531 440.5625 545.976562 442.082031 543.265625 C 451.183594 527.027344 453.722656 512.96875 449.625 501.476562 C 445.511719 489.9375 434.59375 480.601562 417.175781 473.734375 C 405.246094 469.03125 368.359375 466.140625 347.417969 465.941406 C 346.371094 465.929688 345.53125 465.074219 345.539062 464.027344 C 345.550781 462.984375 346.398438 462.148438 347.4375 462.148438 C 347.441406 462.148438 347.449219 462.148438 347.457031 462.148438 C 369.230469 462.355469 406.054688 465.273438 418.566406 470.207031 C 437.050781 477.496094 448.703125 487.589844 453.199219 500.207031 C 457.679688 512.769531 455.050781 527.882812 445.390625 545.117188 C 444.171875 547.292969 443.492188 549.730469 443.429688 552.167969 L 440.566406 664.296875 C 440.453125 668.714844 436.902344 672.175781 432.480469 672.175781 Z M 432.480469 672.175781 "/></g><path style=" stroke:none;fill-rule:nonzero;fill:#e691cb;fill-opacity:1;" d="M 392.464844 497.789062 C 390.054688 494.894531 386.5 493.90625 383.144531 494.804688 C 357.863281 501.574219 332.519531 511.65625 312.003906 531.472656 C 308.851562 534.519531 305.777344 537.851562 303.6875 542.0625 C 301.601562 546.273438 300.601562 551.519531 301.847656 556.089844 C 304.175781 564.636719 313.253906 567.355469 320.398438 564.863281 C 327.542969 562.367188 333.515625 556.273438 340.039062 551.792969 C 346.59375 547.296875 353.832031 544.390625 361.203125 543.300781 C 367.601562 542.355469 375.074219 543.300781 377.742188 551.464844 C 378.566406 553.980469 378.703125 556.8125 378.277344 559.523438 C 377.125 566.835938 372.816406 572.21875 368.144531 576.476562 C 352.761719 590.496094 332.582031 594.550781 317.742188 609.441406 C 309.933594 617.277344 303.46875 630.171875 309.832031 641.808594 C 310.859375 643.683594 312.179688 645.304688 313.675781 646.617188 C 320.050781 652.207031 327.898438 652.53125 335.425781 651.621094 C 351.265625 649.714844 370.5625 641.675781 383.6875 630.128906 C 386.5625 627.601562 385.679688 625.519531 386.59375 621.113281 C 387.109375 618.640625 386.734375 615.941406 385.316406 614.164062 C 382.3125 610.390625 377.910156 608 374.277344 610.644531 C 366.421875 616.359375 358.09375 627.054688 350.238281 632.773438 C 346.171875 635.734375 341.839844 638.796875 337 637.65625 C 334.449219 637.054688 332.222656 634.925781 331.515625 631.84375 C 330.304688 626.574219 333.953125 622.066406 337.488281 619.113281 C 345.921875 612.0625 355.648438 607.960938 365.0625 603.289062 C 374.480469 598.621094 383.957031 593.089844 390.984375 583.957031 C 398.011719 574.824219 402.128906 561.3125 398.914062 549.679688 C 395.335938 536.71875 383.617188 529.574219 372.433594 529.53125 C 361.25 529.484375 350.46875 535.105469 340.203125 541 C 337.710938 542.433594 335.074219 543.925781 332.316406 542.878906 C 330.980469 542.375 329.859375 541.082031 329.5625 539.390625 C 328.917969 535.703125 331.964844 533.242188 334.59375 531.789062 C 346.644531 525.132812 359.589844 521.101562 372.632812 519.945312 C 376.820312 519.574219 381.082031 519.480469 385.117188 517.917969 C 389.152344 516.355469 393.035156 513.011719 394.53125 508.113281 C 395.527344 504.847656 395.082031 500.929688 392.464844 497.789062 Z M 392.464844 497.789062 "/><path style=" stroke:none;fill-rule:nonzero;fill:#fface5;fill-opacity:1;" d="M 384.230469 494.851562 C 381.820312 491.957031 378.265625 490.972656 374.910156 491.871094 C 349.628906 498.636719 324.285156 508.722656 303.769531 528.539062 C 300.617188 531.582031 297.542969 534.917969 295.457031 539.125 C 293.367188 543.335938 292.367188 548.582031 293.613281 553.152344 C 295.945312 561.699219 305.019531 564.417969 312.164062 561.925781 C 319.308594 559.433594 325.28125 553.335938 331.804688 548.859375 C 338.359375 544.359375 345.597656 541.457031 352.96875 540.363281 C 359.367188 539.417969 366.84375 540.367188 369.507812 548.527344 C 370.332031 551.046875 370.46875 553.878906 370.042969 556.589844 C 368.890625 563.898438 364.582031 569.28125 359.910156 573.539062 C 344.53125 587.558594 324.347656 591.613281 309.507812 606.507812 C 301.699219 614.339844 295.234375 627.234375 301.597656 638.871094 C 302.625 640.746094 303.945312 642.367188 305.441406 643.679688 C 311.816406 649.269531 319.664062 649.59375 327.191406 648.6875 C 343.03125 646.777344 358.566406 639.5625 371.6875 628.019531 C 374.5625 625.492188 377.445312 622.582031 378.359375 618.175781 C 378.875 615.703125 378.5 613.007812 377.082031 611.226562 C 374.078125 607.453125 369.207031 610.039062 365.574219 612.683594 C 357.71875 618.398438 349.863281 624.117188 342.003906 629.835938 C 337.9375 632.796875 333.605469 635.859375 328.769531 634.71875 C 326.214844 634.121094 323.988281 631.992188 323.28125 628.90625 C 322.070312 623.636719 325.722656 619.128906 329.253906 616.175781 C 337.691406 609.125 347.414062 605.023438 356.828125 600.355469 C 366.246094 595.683594 375.722656 590.152344 382.75 581.019531 C 389.777344 571.886719 393.894531 558.375 390.683594 546.742188 C 387.101562 533.78125 375.382812 526.636719 364.199219 526.59375 C 353.015625 526.546875 342.234375 532.171875 331.96875 538.066406 C 329.476562 539.496094 326.839844 540.988281 324.082031 539.941406 C 322.746094 539.4375 321.625 538.144531 321.328125 536.453125 C 320.683594 532.765625 323.730469 530.304688 326.359375 528.851562 C 338.410156 522.195312 351.355469 518.164062 364.398438 517.007812 C 368.589844 516.636719 372.847656 516.542969 376.882812 514.980469 C 380.917969 513.417969 384.800781 510.074219 386.296875 505.175781 C 387.292969 501.910156 386.847656 497.992188 384.230469 494.851562 Z M 384.230469 494.851562 "/><path style=" stroke:none;fill-rule:nonzero;fill:#feeddc;fill-opacity:1;" d="M 460.875 576.363281 C 450.933594 574.726562 441.617188 569.144531 435.308594 561.039062 C 428.996094 552.933594 425.753906 542.386719 426.40625 532.09375 C 426.695312 527.519531 428.058594 522.511719 431.894531 520.199219 C 436.195312 517.605469 441.675781 519.425781 446.367188 521.289062 C 459.035156 526.328125 471.707031 531.367188 487.339844 538.011719 C 480.6875 552.734375 469.796875 565.519531 460.875 576.363281 Z M 460.875 576.363281 "/><path style=" stroke:none;fill-rule:nonzero;fill:#703627;fill-opacity:1;" d="M 460.875 578.257812 C 460.773438 578.257812 460.671875 578.25 460.566406 578.234375 C 450.160156 576.519531 440.410156 570.675781 433.8125 562.203125 C 427.21875 553.738281 423.832031 542.722656 424.511719 531.976562 C 424.796875 527.453125 426.140625 521.453125 430.914062 518.578125 C 436.382812 515.277344 443.335938 518.042969 447.070312 519.527344 L 485.078125 534.644531 C 486.050781 535.035156 486.527344 536.136719 486.140625 537.109375 C 485.75 538.082031 484.648438 538.558594 483.675781 538.167969 L 445.664062 523.050781 C 441.34375 521.332031 436.433594 519.675781 432.875 521.820312 C 429.507812 523.851562 428.527344 528.59375 428.296875 532.214844 C 427.675781 542.050781 430.777344 552.132812 436.804688 559.875 C 442.824219 567.605469 451.710938 572.933594 461.183594 574.492188 C 462.214844 574.664062 462.917969 575.636719 462.746094 576.671875 C 462.59375 577.597656 461.789062 578.257812 460.875 578.257812 Z M 460.875 578.257812 "/></g></svg>