<svg xmlns="http://www.w3.org/2000/svg" viewBox="2598.330078125 1529.4693603515625 3463.330078125 3441.1287841796875" fill="none">
<path d="M4866.91 2236.62L4805.22 2243.22C4641.51 2269.78 4484.52 2368.54 4334.26 2539.46C4212.98 2451.98 4099.47 2395.35 3993.68 2369.59C3870.23 2342.27 3764.4 2350.67 3676.24 2394.77C3615.81 2424.67 3561.89 2458.16 3514.45 2495.11C3466.96 2532.11 3425.95 2572.66 3391.42 2616.72L3344.47 2685.45C3288.3 2780.66 3258.02 2889.99 3253.6 3013.51C3252.55 3174.66 3258.32 3270.75 3271.01 3301.82C3282.91 3365.17 3300.16 3428.02 3322.8 3490.36C3395.13 3684.79 3506.85 3860.06 3657.86 4016.19C3804.29 4162.77 3985.12 4276.19 4200.37 4356.49C4323.9 4411.78 4481.68 4432.16 4673.67 4417.67C4756.78 4406.64 4807.56 4396.79 4826.06 4388.1C4858.43 4381.17 4908.96 4351.94 4977.7 4300.45C5025.52 4257.1 5053.84 4229 5062.57 4216.14C5125.8 4133.83 5182.76 4049.69 5233.54 3963.58C5284.29 3877.47 5328.85 3789.48 5367.19 3699.58L5419.98 3563.27C5484.17 3379.66 5523.46 3188.36 5537.87 2989.46C5542.68 2912.79 5538.5 2841.17 5525.34 2774.48L5498.87 2678.27C5476.73 2616.59 5445.66 2559.88 5405.57 2508.18C5365.47 2456.49 5316.4 2409.8 5258.35 2368.08L5164.55 2309.24L5057.3 2257.88L5035.84 2252.45C4978.79 2239.05 4922.45 2233.78 4866.91 2236.62Z" fill="#FE9FAE"/>
<path d="M4382.91 2755.19C4412.61 2793.07 4448.77 2808.39 4491.33 2801.08L4490.33 2801.29C4527.08 2793.36 4554.52 2763.88 4572.64 2712.85C4577.11 2700.23 4590.89 2693.68 4603.51 2698.15C4616.08 2702.62 4622.63 2716.44 4618.17 2729.01C4594.07 2796.99 4554.85 2836.83 4500.52 2848.56L4499.52 2848.73C4438 2859.3 4386.46 2838.04 4344.87 2785.05C4336.64 2774.52 4338.48 2759.32 4348.96 2751.1C4359.48 2742.83 4374.69 2744.67 4382.91 2755.19Z" fill="black"/>
<path d="M4780.16 2568.78C4765.21 2569.53 4750.64 2577.3 4736.36 2591.99L4733.89 2594.96C4713.43 2624.23 4704.57 2655.47 4707.33 2688.79L4707.41 2689.67C4712.38 2730.76 4727.92 2757.19 4754.06 2768.93L4753.81 2768.97C4765.63 2775.74 4777.37 2778.87 4788.98 2778.24C4804.93 2777.45 4820.63 2769.68 4836.13 2754.94L4837.3 2753.73C4858.68 2730.34 4866.2 2694.51 4859.85 2646.2L4859.47 2644.24C4855.63 2626.4 4848.15 2612.67 4837.05 2603.02L4836.75 2603.06C4832.83 2596.63 4827.98 2590.53 4822.3 2584.77L4819.3 2582.18C4806.02 2572.58 4792.94 2568.11 4780.16 2568.78Z" fill="black"/>
<path d="M4117.88 2698.86C4104.23 2699.57 4091.57 2706.21 4079.84 2718.86L4077.88 2721.28C4068.98 2733.81 4062.76 2748.76 4059.21 2766.17C4056.37 2780 4055.32 2795.24 4056.03 2811.82C4057.12 2843.47 4068.44 2866.69 4089.9 2881.55L4093.29 2883.47C4106.32 2889.66 4118.3 2892.45 4129.24 2891.91C4145.07 2891.07 4158.73 2883.18 4170.17 2868.23L4171.68 2866.02C4186.67 2841.09 4192.14 2809.35 4188.09 2770.77L4187.84 2768.97C4186.54 2761.66 4184.75 2755.02 4182.49 2748.97H4182.2C4177.06 2731.51 4167.5 2718.28 4153.51 2709.26L4152.59 2708.71C4140.4 2701.57 4128.83 2698.27 4117.88 2698.86Z" fill="black"/>
<mask id="mask0_248_6433" style="mask-type:luminance" maskUnits="userSpaceOnUse" x="5324" y="2554" width="738" height="888">
<path d="M5324.3 2554.45H6061.16V3441.75H5324.3V2554.45Z" fill="white"/>
</mask>
<g mask="url(#mask0_248_6433)">
<path d="M5443.66 2899.93L5681.96 2623.86L5682.33 2623.44C5711.23 2591.58 5732.32 2572.62 5745.64 2566.56C5755.67 2562.01 5764.94 2561.84 5773.42 2566.1C5775.25 2567.02 5776.97 2568.15 5778.51 2569.53C5818.19 2604.23 5811.63 2704.08 5758.76 2869.15C5754.71 2881.8 5741.22 2888.82 5728.52 2884.85C5715.87 2880.89 5708.77 2867.4 5712.65 2854.7C5740.3 2764.25 5772.87 2698.44 5810.42 2657.18C5810.96 2656.6 5811.55 2656.01 5812.13 2655.47C5852.47 2619.26 5896.83 2604.23 5945.19 2610.33C5946.23 2610.49 5947.23 2610.66 5948.24 2610.91C5955.38 2612.79 5961.6 2615.51 5966.82 2619.1C5978.72 2627.2 5985.03 2638.47 5985.78 2652.84C5986.03 2658.31 5985.41 2664.07 5983.86 2670.04C5982.98 2673.43 5981.81 2676.89 5980.35 2680.44L5980.27 2680.65C5966.53 2713.51 5938.46 2756.07 5896.03 2808.27L5867.22 2771.02C5957.72 2729.59 6016.48 2720.74 6043.58 2744.46C6046.8 2747.3 6049.64 2750.51 6051.98 2754.1C6053.4 2756.23 6054.61 2758.45 6055.69 2760.79C6058.32 2766.55 6059.95 2772.94 6060.58 2779.91C6060.71 2781.58 6060.66 2783.21 6060.5 2784.84C6058.2 2804.22 6047.34 2822.21 6027.88 2838.75L6030.59 2836.04C6030.26 2836.41 6029.93 2836.83 6029.55 2837.21C6020.7 2846.89 5988 2870.7 5931.45 2908.7L5933.91 2906.82L5932.2 2908.15C5930.4 2909.49 5929.19 2910.49 5928.61 2911.16C5933.66 2905.52 5933.75 2898.63 5928.86 2890.53C5929.74 2891.99 5930.45 2893.54 5931.03 2895.17C5928.11 2886.61 5922.8 2882.43 5915.08 2882.6V2882.64C5970.08 2881.18 6003.45 2881.76 6015.18 2884.31C6025.16 2886.48 6031.93 2891.58 6035.48 2899.59L6020.4 2886.27C6026.38 2888.07 6031.6 2890.53 6036.15 2893.66C6047.63 2901.56 6053.9 2912.46 6055.03 2926.36C6055.48 2932.29 6054.86 2938.55 6053.19 2945.15C6052.94 2946.24 6052.56 2947.28 6052.14 2948.28C6040.99 2975.85 6018.78 3005.49 5985.53 3037.23C5985.2 3037.57 5984.82 3037.9 5984.45 3038.23L5645.08 3324.33C5644.29 3325.04 5643.41 3325.66 5642.53 3326.21C5539.5 3392.19 5445.16 3430.56 5359.42 3441.29C5346.18 3442.97 5334.11 3433.57 5332.44 3420.29C5330.81 3407.05 5340.17 3394.98 5353.45 3393.31C5431.92 3383.46 5519.58 3347.55 5616.47 3285.49L5613.92 3287.37L5953.29 3001.28L5952.16 3002.28C5980.39 2975.3 5998.81 2951.25 6007.37 2930.08L6006.33 2933.21C6006.71 2931.79 6006.87 2930.79 6006.83 2930.16C6006.91 2931.58 6007.58 2932.71 6008.75 2933.5C6008.33 2933.21 6007.54 2932.92 6006.37 2932.54C5999.65 2930.5 5994.13 2925.65 5991.29 2919.22C5994.34 2926.11 5998.9 2930.24 6004.95 2931.54C5997.02 2929.83 5967.45 2929.62 5916.33 2930.95H5916.29C5900.33 2931.37 5890.02 2924.65 5885.26 2910.79L5887.43 2915.42C5880.08 2903.14 5881.79 2890.99 5892.57 2878.92C5895.45 2875.71 5899.12 2872.45 5903.72 2869.11L5902.01 2870.49L5904.51 2868.57C5957.84 2832.74 5987.66 2811.36 5993.93 2804.55C5993.93 2804.55 5993.88 2804.59 5993.84 2804.63C5994.68 2803.67 5995.6 2802.75 5996.56 2801.92C6006.37 2793.57 6011.68 2786.01 6012.47 2779.16L6012.39 2784.09C6012.26 2782.67 6012.05 2781.62 6011.76 2780.91C6011.72 2780.83 6011.68 2780.79 6011.68 2780.75C6011.68 2780.79 6011.72 2780.83 6011.76 2780.83C6000.32 2770.85 5958.89 2782.25 5887.35 2814.99C5877.16 2819.67 5865.05 2816.66 5858.2 2807.81C5851.3 2798.91 5851.47 2786.47 5858.53 2777.74C5898.04 2729.17 5923.72 2690.59 5935.67 2661.98L5935.62 2662.19C5936.25 2660.61 5936.71 2659.19 5937.04 2657.93C5937.38 2656.72 5937.5 2655.84 5937.5 2655.3C5937.59 2656.89 5938.26 2658.14 5939.55 2659.02C5938.97 2658.6 5937.8 2658.18 5936.08 2657.72L5939.13 2658.31C5905.35 2654.05 5873.82 2665.07 5844.46 2691.47L5846.17 2689.75C5813.51 2725.62 5784.4 2785.34 5758.84 2868.86L5712.73 2854.41C5759.13 2709.51 5770.45 2626.7 5746.69 2605.94L5751.78 2609.32C5757.05 2611.96 5761.64 2612.42 5765.57 2610.62C5758.34 2613.88 5742.55 2628.99 5718.16 2655.93L5718.54 2655.47L5480.24 2931.54C5471.51 2941.65 5456.27 2942.77 5446.16 2934.04C5436.05 2925.32 5434.93 2910.03 5443.66 2899.93Z" fill="black"/>
</g>
<path d="M5252.17 3682.12C5490.76 3752.86 5665.88 3944.91 5777.55 4258.27L5772 4249.42C5771.45 4248.88 5770.99 4248.5 5770.62 4248.29C5772.62 4249.34 5776.88 4249.96 5783.36 4250.17H5782.15L5940.59 4247.37C5952.87 4247.17 5963.36 4256.19 5964.98 4268.34C5970.33 4308.68 5933.91 4371.36 5855.69 4456.38L5856.07 4456C5678.7 4657.41 5536.75 4758.09 5430.12 4758.01C5427.83 4758.01 5425.57 4757.67 5423.36 4757.05C5401.43 4750.66 5381.89 4736.25 5364.72 4713.82C5363.97 4712.82 5363.3 4711.78 5362.68 4710.69L5259.23 4520.94L5260.23 4522.61C5240.23 4492.04 5203.52 4450.03 5150.1 4396.54L5150.69 4397.12C5062.9 4315.19 4959.5 4243.7 4840.43 4182.61C4828.57 4176.51 4823.89 4161.93 4829.99 4150.03C4836.04 4138.17 4850.62 4133.5 4862.52 4139.59C4985.56 4202.69 5092.64 4276.77 5183.68 4361.79L5184.31 4362.38C5240.02 4418.17 5278.82 4462.77 5300.66 4496.13C5301.03 4496.68 5301.37 4497.22 5301.66 4497.8L5405.15 4687.56L5403.1 4684.43C5413.84 4698.46 5425.11 4707.19 5436.89 4710.61L5430.17 4709.65C5522.21 4709.73 5652.05 4614.52 5819.77 4424.06L5820.15 4423.64C5888.14 4349.73 5920.42 4300.07 5917.04 4274.73L5941.43 4295.73L5782.98 4298.53H5781.77C5767.99 4298.07 5756.84 4295.65 5748.36 4291.22C5744.22 4289.09 5740.63 4286.46 5737.58 4283.37C5735.12 4280.86 5733.2 4277.82 5732.03 4274.52C5625.83 3976.57 5461.32 3794.58 5238.43 3728.47C5225.65 3724.67 5218.34 3711.23 5222.14 3698.41C5225.94 3685.63 5239.39 3678.32 5252.17 3682.12Z" fill="black"/>
<path d="M3958.89 4019.83C3921.43 4129.15 3869.94 4209.16 3804.49 4259.94L3805.66 4258.98C3778.27 4283.12 3743.52 4308.01 3701.46 4333.65L3701.92 4333.4C3671.1 4353.15 3601.82 4383.59 3494.11 4424.73L3496.45 4423.72C3486.3 4428.86 3480 4434.83 3477.61 4441.64C3477.03 4443.18 3476.32 4444.69 3475.48 4446.11C3475.74 4445.69 3475.9 4445.35 3475.99 4445.1C3469.76 4462.35 3482.38 4524.66 3513.82 4632.02L3513.61 4631.43L3594.55 4883.91L3594.26 4883.12C3602.4 4905.75 3609.17 4918.95 3614.56 4922.62C3614.18 4922.37 3613.68 4922.16 3612.93 4921.95L3613.64 4922.16C3610.55 4921.16 3607.96 4921.33 3605.95 4922.62C3607.33 4921.74 3609.25 4919.49 3611.72 4915.86L3609.34 4920.24C3648.93 4824.65 3680.96 4770.16 3705.47 4756.79C3711.86 4753.33 3718.34 4751.62 3724.89 4751.7L3712.41 4754.96C3725.81 4747.19 3742.6 4741.64 3762.81 4738.25C3763.65 4738.09 3764.49 4738 3765.32 4737.96C3834.1 4733.66 3874.95 4729.23 3887.81 4724.68C3888.86 4724.31 3889.94 4723.97 3891.03 4723.76C3934.84 4714.78 3977.06 4703.22 4017.7 4689.06L4018.24 4688.89C4097.42 4663.42 4170.59 4620.91 4237.79 4561.32C4238.16 4560.99 4238.54 4560.65 4238.91 4560.36C4332.67 4487.11 4410.1 4356.07 4471.24 4167.24C4475.38 4154.54 4488.99 4147.61 4501.69 4151.7C4514.38 4155.84 4521.36 4169.45 4517.22 4182.15C4453.03 4380.38 4370.18 4519.14 4268.69 4598.44L4269.86 4597.48C4197.61 4661.58 4118.68 4707.39 4033.02 4734.91L4033.57 4734.75C3990.93 4749.57 3946.61 4761.72 3900.76 4771.12L3903.97 4770.24C3886.89 4776.3 3841.66 4781.64 3768.33 4786.23L3770.79 4785.94C3756.38 4788.36 3744.98 4791.96 3736.67 4796.8C3732.87 4799.01 3728.57 4800.1 3724.18 4800.06C3726.11 4800.1 3727.57 4799.81 3728.61 4799.22C3714.08 4807.16 3689.23 4853.68 3654.02 4938.74C3653.4 4940.28 3652.6 4941.75 3651.64 4943.12C3645.5 4952.14 3638.99 4958.87 3632.14 4963.25C3621.36 4970.23 3610.3 4971.85 3598.89 4968.22L3599.6 4968.43C3595.3 4967.18 3591.21 4965.22 3587.24 4962.54C3573.25 4952.94 3560.43 4931.89 3548.78 4899.44L3548.49 4898.65L3467.59 4646.22L3467.42 4645.59C3433.05 4528.16 3420.73 4455.88 3430.51 4428.78C3431.51 4425.98 3432.72 4423.39 3434.14 4421.05L3432.01 4425.52C3438.73 4406.56 3452.93 4391.57 3474.57 4380.59C3475.32 4380.21 3476.11 4379.88 3476.9 4379.54C3581.48 4339.62 3647.8 4310.64 3675.82 4292.68L3676.28 4292.39C3715.96 4268.21 3748.41 4244.95 3773.72 4222.69C3774.09 4222.36 3774.47 4222.03 3774.88 4221.73C3832.73 4176.88 3878.83 4104.35 3913.16 4004.13C3917.51 3991.51 3931.25 3984.79 3943.86 3989.09C3956.51 3993.44 3963.24 4007.17 3958.89 4019.83Z" fill="black"/>
<mask id="mask1_248_6433" style="mask-type:luminance" maskUnits="userSpaceOnUse" x="2598" y="2768" width="1038" height="835">
<path d="M2598.83 2768.26H3635.06V3602.11H2598.83V2768.26Z" fill="white"/>
</mask>
<g mask="url(#mask1_248_6433)">
<path d="M3374.75 3089.43C3368.91 3094.02 3361.64 3095.95 3352.87 3095.24H3352.91C3333.66 3093.73 3279.24 3072.1 3189.66 3030.38C3188.57 3029.88 3187.53 3029.3 3186.53 3028.63C3017.8 2916.88 2923.5 2851.53 2903.71 2832.61L2906.42 2834.82C2895.19 2826.85 2881.91 2823.8 2866.58 2825.6L2866.41 2825.64C2866.12 2825.64 2865.91 2825.68 2865.78 2825.72C2866.45 2825.51 2866.95 2825.14 2867.29 2824.59C2865.37 2827.6 2865.03 2834.74 2866.29 2845.97C2870.25 2880.97 2891.01 2938.6 2928.47 3018.77C2933.65 3029.8 2929.81 3042.91 2919.53 3049.43C2909.3 3055.94 2895.77 3053.81 2888 3044.46C2784.18 2919.55 2714.35 2871.95 2678.6 2901.68C2676.6 2903.39 2674.64 2905.36 2672.71 2907.57L2677.77 2897.76C2674.76 2909.7 2677.22 2920.56 2685.12 2930.2C2687 2932.54 2688.46 2935.26 2689.38 2938.14C2688.92 2936.59 2688.38 2935.34 2687.75 2934.46C2693.64 2943.36 2726.5 2975.8 2786.39 3031.8C2790.86 3035.98 2793.58 3041.74 2793.99 3047.84C2795.25 3066.42 2786.64 3076.32 2768.27 3077.57H2768.23C2765.01 3077.78 2761.59 3077.49 2758.04 3076.69C2757.03 3076.44 2756.03 3076.15 2755.07 3075.82C2716.94 3061.87 2688.83 3054.31 2670.71 3053.18L2671.5 3053.23C2656.76 3052.77 2647.41 3053.48 2643.44 3055.27C2646.78 3053.77 2648.91 3050.55 2649.95 3045.67C2649.74 3046.67 2649.45 3047.67 2649.12 3048.67C2649.2 3048.42 2649.24 3048.26 2649.24 3048.09C2648.87 3066 2690 3100.25 2772.65 3150.82C2778.25 3154.28 2782.26 3159.88 2783.64 3166.31C2786.39 3178.96 2781.63 3189.44 2769.4 3197.8C2767.85 3198.84 2766.14 3199.88 2764.26 3200.89C2761.67 3202.26 2758.83 3203.18 2755.91 3203.56C2738.16 3205.81 2725.08 3211.28 2716.73 3219.97C2712.93 3223.94 2711.97 3228.78 2713.89 3234.59L2713.73 3234.13C2726.34 3269.96 2847.83 3341.11 3078.15 3447.68L3075.85 3446.77C3216.85 3495.16 3395.84 3529.36 3612.84 3549.33C3626.17 3550.54 3635.94 3562.31 3634.73 3575.59C3633.52 3588.91 3621.74 3598.69 3608.42 3597.47C3387.57 3577.14 3204.82 3542.14 3060.15 3492.49C3059.36 3492.2 3058.61 3491.91 3057.85 3491.57C2815.17 3379.28 2685.28 3298.85 2668.16 3250.2L2667.99 3249.74C2659.98 3225.52 2664.61 3204.39 2681.9 3186.44C2698.19 3169.57 2720.78 3159.29 2749.81 3155.58L2741.46 3158.25C2741.83 3158.04 2742.08 3157.92 2742.21 3157.79C2736.49 3161.72 2734.52 3167.98 2736.4 3176.58L2747.43 3192.08C2648.99 3131.86 2600.17 3083.5 2600.92 3047.09C2601.01 3042.16 2601.84 3037.4 2603.43 3032.85L2602.59 3035.85C2604.89 3024.75 2611.82 3016.56 2623.43 3011.3C2634.21 3006.37 2650.7 3004.24 2672.92 3004.87L2673.76 3004.91C2696.52 3006.37 2729.18 3014.85 2771.69 3030.38L2768.73 3029.51C2767.68 3029.3 2766.47 3029.21 2765.01 3029.3V3029.34C2751.27 3030.26 2744.84 3037.48 2745.76 3051.1L2753.36 3067.13C2690.71 3008.5 2655.38 2973.17 2647.41 2961.06C2645.57 2958.27 2644.19 2955.51 2643.35 2952.79L2647.66 2960.77C2629.53 2938.55 2623.98 2913.67 2630.87 2886.02C2631.79 2882.39 2633.54 2879.01 2635.96 2876.17C2639.64 2871.82 2643.56 2867.94 2647.7 2864.52C2708.21 2814.15 2800.72 2863.85 2925.17 3013.55L2884.7 3039.24C2844.99 2954.3 2822.85 2891.66 2818.26 2851.4C2815.71 2828.77 2818.51 2811.11 2826.65 2798.41C2832.58 2789.18 2840.77 2782.92 2851.21 2779.62C2854.34 2778.66 2857.6 2777.95 2860.98 2777.57H2860.86C2888.55 2774.32 2913.06 2780.25 2934.4 2795.4C2935.36 2796.07 2936.28 2796.82 2937.12 2797.66C2954.82 2814.57 3046.87 2878.13 3213.21 2988.29L3210.08 2986.54C3294.4 3025.79 3343.26 3045.96 3356.75 3047.05C3352.91 3046.75 3348.94 3048.21 3344.85 3051.43C3355.33 3043.16 3370.53 3044.96 3378.76 3055.48C3387.03 3065.96 3385.23 3081.16 3374.75 3089.43Z" fill="black"/>
</g>
<path d="M5589.37 1924.18L5583.98 1924.72C5560.97 1929.82 5541.8 1943.01 5526.43 1964.35C5518.33 1972.2 5508.76 1996.22 5497.65 2036.39C5482.83 2080.28 5486.13 2148.09 5507.55 2239.88C5515.57 2266.19 5524.68 2289.91 5534.87 2311.12C5545.1 2332.34 5556.37 2351 5568.78 2367.12L5588.16 2389.38L5609.2 2407.84C5623.78 2418.86 5639.44 2427.38 5656.23 2433.35C5682.58 2442.54 5704.93 2445.8 5723.18 2443.08C5749.86 2443.08 5795.68 2418.78 5860.62 2370.09C5885.93 2350.75 5907.23 2331.33 5924.52 2311.92C5925.73 2312.42 5940.76 2292.46 5969.66 2252.03C6024.29 2170.69 6040.87 2093.01 6019.44 2018.97C6018.44 2013.04 6012.13 2001.64 6000.44 1984.82C5990.33 1972.83 5978.01 1965.15 5963.48 1961.72C5943.85 1956.08 5916.41 1960.85 5881.25 1976.09C5871.23 1982.27 5850.34 2001.98 5818.52 2035.18C5806.87 2048.58 5796.72 2062.19 5788.08 2076.02C5770.79 2103.62 5759.59 2132.02 5754.46 2161.25C5742.47 2117.44 5730.57 2080.9 5718.67 2051.67C5715.7 2042.07 5706.8 2024.28 5692.06 1998.22C5674.23 1973.5 5655.44 1953.83 5635.64 1939.21C5632.38 1935.91 5623.03 1931.49 5607.58 1926.02C5601.44 1924.47 5595.38 1923.89 5589.37 1924.18Z" fill="#FE9FAE"/>
<path d="M4289.03 1530.56L4281.35 1531.27C4260.76 1534.07 4239.62 1543.8 4217.95 1560.42C4205.96 1577.29 4196.23 1595.12 4188.8 1613.99C4166.46 1670.66 4164.58 1736.47 4183.12 1811.51C4192.01 1849.89 4205.67 1885.76 4224.17 1919.04L4234.32 1936.21C4241.42 1947.65 4249.23 1959.05 4257.71 1970.41L4285.35 2004.4C4315.13 2039.27 4342.49 2063.95 4367.46 2078.4C4387.8 2088.46 4399.66 2093.14 4403.08 2092.43C4409.73 2094.06 4418.54 2094.68 4429.48 2094.39L4450.82 2091.3C4465.27 2087.88 4480.22 2081.78 4495.67 2073.01C4511.08 2064.2 4527.04 2052.76 4543.45 2038.6C4576.32 2010.29 4611.15 1971.2 4647.94 1921.38C4709.83 1817.4 4733.35 1733.01 4718.4 1668.15L4711 1644.73L4702.57 1631.41C4691.08 1614.79 4678.6 1602.47 4665.11 1594.53C4651.62 1586.6 4637.13 1583.05 4621.67 1583.84C4614.91 1583.3 4602.71 1586.39 4585.09 1593.03C4550.13 1607.69 4518.77 1634.79 4491.08 1674.34C4482.89 1687.16 4475.75 1701.06 4469.74 1716.09L4461.55 1739.48C4456.63 1755.64 4452.78 1772.93 4450.03 1791.43C4417.2 1658.26 4395.4 1589.36 4384.71 1584.76C4374.77 1567.43 4358.98 1553.02 4337.39 1541.46C4315.17 1532.06 4299.05 1528.43 4289.03 1530.56Z" fill="#FE9FAE"/>
<path d="M3395.55 1852.27L3382.85 1853.82C3335.58 1867.26 3296.95 1900.13 3266.92 1952.37C3237.64 2009.58 3234.8 2067.58 3258.36 2126.3C3232.13 2090.42 3197.34 2055.14 3153.95 2020.39C3132.86 2002.44 3108.39 1992.42 3080.57 1990.37C3048.29 1991.83 3022.31 2006.86 3002.6 2035.47C2986.61 2060.57 2977.33 2089.84 2974.87 2123.33C2970.86 2163.84 2978.59 2214.32 2998.09 2274.79C3009.62 2308.32 3027.66 2335.51 3052.22 2356.39C3090.18 2391.88 3134.15 2418.74 3184.15 2436.86C3249.25 2458.45 3297.95 2467.09 3330.27 2462.83C3381.94 2456.69 3425.33 2421.78 3460.45 2358.14C3499.5 2285.15 3523.89 2199.92 3533.66 2102.49C3535.75 2075.31 3535.79 2050.13 3533.83 2026.91C3531.87 2003.69 3527.9 1982.43 3521.88 1963.18L3511.36 1935.79C3484.67 1881.59 3446.08 1853.73 3395.55 1852.27Z" fill="#FE9FAE"/>
</svg>