<svg xmlns="http://www.w3.org/2000/svg" xmlns:xlink="http://www.w3.org/1999/xlink" zoomAndPan="magnify" preserveAspectRatio="xMidYMid meet" version="1.2" viewBox="190.79 315.37 428.63 381.56"><defs><clipPath id="a7246d738d"><path d="M 190.789062 315.371094 L 619.414062 315.371094 L 619.414062 696.933594 L 190.789062 696.933594 Z M 190.789062 315.371094 "/></clipPath></defs><g id="7dfc32f7fc"><g clip-rule="nonzero" clip-path="url(#a7246d738d)"><path style=" stroke:none;fill-rule:nonzero;fill:#000000;fill-opacity:1;" d="M 250.402344 464.453125 C 250.402344 451.652344 250.402344 438.851562 250.402344 426.050781 C 249.332031 427.121094 248.261719 428.195312 247.195312 429.265625 C 238.125 438.355469 229.050781 447.441406 219.980469 456.53125 C 215.042969 461.476562 210.105469 466.425781 205.167969 471.375 C 213.921875 473.816406 222.671875 476.261719 231.421875 478.707031 C 237.742188 480.472656 244.0625 482.238281 250.382812 484.003906 C 250.203125 477.5 250.402344 470.957031 250.402344 464.453125 Z M 330.699219 513.105469 C 331.289062 512.324219 331.875 511.542969 332.464844 510.761719 C 330.820312 510.304688 329.179688 509.84375 327.535156 509.386719 C 307.855469 503.886719 288.175781 498.390625 268.496094 492.894531 C 252.640625 488.464844 236.78125 484.035156 220.917969 479.601562 C 214.980469 477.941406 209.042969 476.285156 203.105469 474.625 C 203.035156 475.0625 202.960938 475.503906 202.886719 475.941406 C 201.628906 483.722656 200.550781 491.488281 199.589844 499.289062 C 197.96875 512.394531 196.6875 525.546875 195.796875 538.726562 C 194.738281 554.363281 194.226562 570.054688 194.597656 585.726562 C 194.960938 601.003906 196.089844 616.351562 199.050781 631.359375 C 201.527344 643.914062 205.214844 656.714844 212.3125 667.5 C 212.605469 667.949219 212.910156 668.390625 213.214844 668.824219 C 214.335938 667.332031 215.507812 665.871094 216.628906 664.386719 C 219.980469 659.9375 223.335938 655.488281 226.6875 651.042969 C 231.347656 644.863281 236.007812 638.679688 240.667969 632.503906 C 246.179688 625.191406 251.691406 617.878906 257.207031 610.570312 C 263.117188 602.730469 269.027344 594.890625 274.941406 587.050781 C 280.820312 579.25 286.703125 571.449219 292.585938 563.652344 C 297.929688 556.5625 303.277344 549.472656 308.621094 542.378906 C 313.007812 536.566406 317.386719 530.753906 321.773438 524.941406 C 324.75 521 327.722656 517.050781 330.699219 513.105469 Z M 483.378906 503.058594 C 498.605469 497.269531 513.832031 491.484375 529.058594 485.699219 C 528.996094 485.515625 528.960938 485.308594 528.960938 485.078125 C 528.960938 484.980469 528.964844 484.882812 528.960938 484.789062 C 528.742188 478.023438 528.960938 471.21875 528.960938 464.453125 C 528.960938 450.480469 528.960938 436.503906 528.960938 422.535156 C 528.960938 422.355469 528.960938 422.179688 528.960938 422 C 528.941406 421.859375 528.941406 421.71875 528.960938 421.574219 C 528.960938 405.726562 528.960938 389.882812 528.960938 374.035156 C 528.960938 360.699219 528.960938 347.363281 528.960938 334.03125 C 528.960938 329.070312 528.960938 324.109375 528.960938 319.148438 C 525.820312 319.246094 522.640625 319.089844 519.511719 319.089844 C 511.847656 319.089844 504.183594 319.089844 496.523438 319.089844 C 485.9375 319.089844 475.355469 319.089844 464.769531 319.089844 C 452.164062 319.089844 439.554688 319.089844 426.945312 319.089844 C 413.515625 319.089844 400.082031 319.089844 386.652344 319.089844 C 373.253906 319.089844 359.859375 319.089844 346.464844 319.089844 C 334.316406 319.089844 322.167969 319.089844 310.019531 319.089844 C 299.992188 319.089844 289.96875 319.089844 279.941406 319.089844 C 273.207031 319.089844 266.46875 319.089844 259.734375 319.089844 C 257.878906 319.089844 256.027344 319.089844 254.171875 319.089844 C 254.207031 320.757812 254.085938 322.460938 254.085938 324.097656 C 254.085938 328.691406 254.085938 333.28125 254.085938 337.875 C 254.085938 351.847656 254.085938 365.820312 254.085938 379.792969 C 254.085938 395.960938 254.085938 412.125 254.085938 428.292969 C 254.085938 441.625 254.085938 454.964844 254.085938 468.296875 C 254.085938 473.875 254.085938 479.457031 254.085938 485.039062 C 263.785156 487.75 273.488281 490.457031 283.191406 493.167969 C 300.765625 498.078125 318.335938 502.988281 335.910156 507.894531 C 335.992188 507.914062 336.074219 507.933594 336.160156 507.96875 C 338.113281 508.511719 340.066406 509.058594 342.015625 509.605469 C 358.445312 514.191406 374.871094 518.78125 391.300781 523.371094 C 396.523438 524.832031 401.753906 526.292969 406.980469 527.75 C 408.542969 528.1875 410.117188 528.625 411.683594 529.066406 C 412.21875 529.214844 413.058594 529.300781 413.648438 529.542969 C 413.714844 529.523438 413.769531 529.507812 413.792969 529.496094 C 414.859375 529.019531 415.996094 528.660156 417.085938 528.246094 C 421.597656 526.53125 426.105469 524.820312 430.617188 523.105469 C 446.191406 517.1875 461.765625 511.269531 477.339844 505.351562 C 479.269531 504.617188 481.203125 503.882812 483.136719 503.152344 C 483.21875 503.113281 483.296875 503.082031 483.378906 503.058594 Z M 598.605469 674.058594 C 599.660156 672.964844 600.632812 671.796875 601.527344 670.570312 C 600.113281 668.632812 598.714844 666.679688 597.308594 664.730469 C 594.019531 660.1875 590.734375 655.640625 587.445312 651.097656 C 582.875 644.773438 578.304688 638.453125 573.730469 632.128906 C 568.320312 624.648438 562.910156 617.167969 557.496094 609.6875 C 551.695312 601.660156 545.894531 593.640625 540.089844 585.617188 C 534.363281 577.699219 528.640625 569.785156 522.914062 561.867188 C 517.664062 554.609375 512.417969 547.351562 507.167969 540.09375 C 502.867188 534.144531 498.5625 528.195312 494.261719 522.246094 C 491.351562 518.226562 488.441406 514.203125 485.535156 510.179688 C 484.773438 509.128906 484.015625 508.082031 483.257812 507.03125 C 477.203125 509.332031 471.144531 511.628906 465.09375 513.933594 C 451.289062 519.175781 437.480469 524.421875 423.675781 529.667969 C 420.710938 530.796875 417.769531 532.011719 414.773438 533.050781 C 413.402344 533.527344 412.332031 533.074219 410.972656 532.695312 C 400.796875 529.851562 390.625 527.007812 380.453125 524.167969 C 365.730469 520.054688 351.011719 515.945312 336.289062 511.828125 C 334.960938 513.675781 333.511719 515.453125 332.148438 517.261719 C 328.796875 521.707031 325.441406 526.15625 322.085938 530.601562 C 317.429688 536.78125 312.769531 542.960938 308.109375 549.144531 C 302.597656 556.453125 297.082031 563.765625 291.570312 571.074219 C 285.660156 578.914062 279.746094 586.753906 273.835938 594.597656 C 267.957031 602.394531 262.074219 610.195312 256.191406 617.996094 C 250.847656 625.082031 245.496094 632.175781 240.152344 639.265625 C 235.769531 645.078125 231.386719 650.886719 227.003906 656.703125 C 224.027344 660.648438 221.050781 664.59375 218.078125 668.539062 C 217.238281 669.652344 216.402344 670.765625 215.5625 671.875 C 221.082031 678.453125 228.1875 683.035156 236.890625 684.839844 C 248.667969 687.289062 260.707031 688.511719 272.679688 689.53125 C 289.03125 690.925781 305.425781 691.730469 321.820312 692.289062 C 340.6875 692.925781 359.566406 693.203125 378.445312 693.242188 C 398.226562 693.28125 418.011719 693.054688 437.789062 692.578125 C 456.589844 692.128906 475.386719 691.449219 494.167969 690.476562 C 510.34375 689.640625 526.515625 688.601562 542.644531 687.117188 C 554.421875 686.035156 566.234375 684.816406 577.871094 682.671875 C 585.59375 681.25 593.082031 679.769531 598.605469 674.058594 Z M 582.84375 465.261719 C 588.316406 463.183594 593.785156 461.101562 599.257812 459.027344 C 597.4375 458.085938 595.617188 457.148438 593.800781 456.207031 C 580.734375 449.46875 567.667969 442.726562 554.601562 435.984375 C 547.285156 432.207031 539.964844 428.429688 532.644531 424.65625 C 532.644531 425.867188 532.644531 427.082031 532.644531 428.292969 C 532.644531 441.625 532.644531 454.964844 532.644531 468.296875 C 532.644531 473.644531 532.644531 478.988281 532.644531 484.335938 C 533.226562 484.117188 533.808594 483.894531 534.390625 483.675781 C 550.542969 477.535156 566.695312 471.398438 582.84375 465.261719 Z M 615.664062 601.511719 C 615.929688 585.167969 615.195312 568.820312 613.964844 552.53125 C 612.800781 537.179688 611.167969 521.863281 609.199219 506.601562 C 607.75 495.375 606.109375 484.171875 604.273438 473.003906 C 603.660156 469.257812 603.035156 465.511719 602.351562 461.777344 C 592.871094 465.378906 583.386719 468.980469 573.90625 472.582031 C 556.457031 479.214844 539.003906 485.847656 521.554688 492.480469 C 509.972656 496.878906 498.390625 501.277344 486.808594 505.679688 C 488 507.320312 489.183594 508.964844 490.371094 510.609375 C 493.65625 515.152344 496.941406 519.699219 500.230469 524.242188 C 504.804688 530.5625 509.375 536.886719 513.945312 543.210938 C 519.359375 550.691406 524.769531 558.171875 530.179688 565.652344 C 535.984375 573.675781 541.785156 581.699219 547.585938 589.726562 C 553.3125 597.640625 559.039062 605.554688 564.761719 613.472656 C 570.011719 620.730469 575.261719 627.988281 580.507812 635.246094 C 584.8125 641.195312 589.113281 647.144531 593.417969 653.09375 C 596.328125 657.117188 599.234375 661.140625 602.144531 665.160156 C 602.65625 665.871094 603.171875 666.578125 603.683594 667.289062 C 607.675781 660.496094 609.878906 652.441406 611.480469 644.953125 C 614.535156 630.714844 615.429688 616.039062 615.664062 601.511719 Z M 619.066406 577.359375 C 619.644531 593.3125 619.621094 609.347656 618.101562 625.253906 C 616.863281 638.230469 614.800781 651.503906 609.582031 663.542969 C 608.410156 666.238281 607.03125 668.875 605.410156 671.320312 C 605.324219 671.492188 605.214844 671.652344 605.089844 671.792969 C 601.515625 677.019531 596.796875 681.332031 590.582031 683.417969 C 582.082031 686.265625 572.882812 687.335938 564.039062 688.480469 C 549.921875 690.308594 535.71875 691.5 521.523438 692.507812 C 503.714844 693.761719 485.882812 694.65625 468.046875 695.332031 C 448.371094 696.074219 428.679688 696.550781 408.988281 696.777344 C 389.238281 697.007812 369.480469 696.992188 349.734375 696.667969 C 331.699219 696.367188 313.664062 695.824219 295.65625 694.8125 C 281.066406 694 266.46875 692.933594 251.976562 691.019531 C 241.394531 689.625 230.027344 688.519531 221.101562 682.128906 C 211.46875 675.234375 205.464844 664.558594 201.378906 653.664062 C 196.300781 640.144531 193.898438 625.675781 192.449219 611.363281 C 190.835938 595.464844 190.550781 579.449219 190.949219 563.484375 C 191.324219 548.425781 192.335938 533.378906 193.792969 518.386719 C 194.882812 507.183594 196.226562 496.003906 197.828125 484.867188 C 198.457031 480.507812 199.097656 476.148438 199.863281 471.8125 C 199.96875 471.199219 200.292969 470.816406 200.707031 470.628906 C 202.691406 468.640625 204.671875 466.652344 206.652344 464.667969 C 215.722656 455.582031 224.796875 446.492188 233.863281 437.402344 C 239.375 431.878906 244.890625 426.359375 250.402344 420.832031 C 250.402344 405.234375 250.402344 389.632812 250.402344 374.035156 C 250.402344 360.699219 250.402344 347.363281 250.402344 334.03125 C 250.402344 328.4375 250.402344 322.839844 250.402344 317.246094 C 250.402344 316.25 251.246094 315.402344 252.242188 315.402344 C 252.402344 315.402344 252.558594 315.40625 252.714844 315.402344 C 256.320312 315.335938 259.933594 315.402344 263.535156 315.402344 C 271.199219 315.402344 278.863281 315.402344 286.523438 315.402344 C 297.109375 315.402344 307.691406 315.402344 318.273438 315.402344 C 330.882812 315.402344 343.492188 315.402344 356.101562 315.402344 C 369.53125 315.402344 382.964844 315.402344 396.394531 315.402344 C 409.792969 315.402344 423.1875 315.402344 436.582031 315.402344 C 448.730469 315.402344 460.878906 315.402344 473.027344 315.402344 C 483.054688 315.402344 493.078125 315.402344 503.105469 315.402344 C 509.839844 315.402344 516.578125 315.402344 523.3125 315.402344 C 525.808594 315.402344 528.308594 315.402344 530.804688 315.402344 C 531.804688 315.402344 532.644531 316.253906 532.644531 317.246094 C 532.644531 317.34375 532.644531 317.445312 532.644531 317.539062 C 532.867188 324.300781 532.644531 331.109375 532.644531 337.875 C 532.644531 351.847656 532.644531 365.820312 532.644531 379.792969 C 532.644531 393.367188 532.644531 406.9375 532.644531 420.511719 C 535.351562 421.910156 538.058594 423.304688 540.765625 424.703125 C 553.828125 431.441406 566.898438 438.183594 579.964844 444.929688 C 588.082031 449.113281 596.195312 453.300781 604.308594 457.488281 C 604.792969 457.578125 605.21875 457.878906 605.433594 458.429688 C 605.527344 458.621094 605.574219 458.828125 605.585938 459.042969 C 605.777344 460.074219 605.964844 461.105469 606.144531 462.140625 C 607.605469 470.363281 608.921875 478.613281 610.144531 486.871094 C 612.195312 500.652344 613.972656 514.472656 615.441406 528.328125 C 617.167969 544.625 618.46875 560.976562 619.066406 577.359375 "/></g><path style=" stroke:none;fill-rule:nonzero;fill:#ffa0cf;fill-opacity:1;" d="M 601.917969 590.742188 C 601.921875 593.113281 605.605469 593.117188 605.601562 590.742188 C 605.59375 575.980469 604.753906 561.214844 603.691406 546.496094 C 602.851562 534.792969 601.828125 523.101562 600.652344 511.425781 C 600.425781 509.199219 600.199219 506.96875 599.953125 504.738281 C 599.84375 503.746094 599.183594 502.894531 598.109375 502.894531 C 597.199219 502.894531 596.160156 503.742188 596.265625 504.738281 C 596.980469 511.175781 597.589844 517.625 598.179688 524.078125 C 599.445312 538.066406 600.519531 552.074219 601.21875 566.101562 C 601.628906 574.308594 601.914062 582.523438 601.917969 590.742188 Z M 605.601562 623.179688 C 605.601562 616.296875 605.601562 609.417969 605.601562 602.535156 C 605.601562 600.167969 601.917969 600.160156 601.917969 602.535156 C 601.917969 609.417969 601.917969 616.296875 601.917969 623.179688 C 601.917969 625.550781 605.601562 625.554688 605.601562 623.179688 Z M 613.964844 552.53125 C 615.195312 568.820312 615.929688 585.167969 615.664062 601.511719 C 615.429688 616.039062 614.535156 630.714844 611.480469 644.953125 C 609.878906 652.441406 607.675781 660.496094 603.683594 667.289062 C 603.171875 666.578125 602.65625 665.871094 602.144531 665.160156 C 599.234375 661.140625 596.328125 657.117188 593.417969 653.09375 C 589.113281 647.144531 584.8125 641.195312 580.507812 635.246094 C 575.261719 627.988281 570.011719 620.730469 564.761719 613.472656 C 559.039062 605.554688 553.3125 597.640625 547.585938 589.726562 C 541.785156 581.699219 535.984375 573.675781 530.179688 565.652344 C 524.769531 558.171875 519.359375 550.691406 513.945312 543.210938 C 509.375 536.886719 504.804688 530.5625 500.230469 524.242188 C 496.941406 519.699219 493.65625 515.152344 490.371094 510.609375 C 489.183594 508.964844 488 507.320312 486.808594 505.679688 C 498.390625 501.277344 509.972656 496.878906 521.554688 492.480469 C 539.003906 485.847656 556.457031 479.214844 573.90625 472.582031 C 583.386719 468.980469 592.871094 465.378906 602.351562 461.777344 C 603.035156 465.511719 603.660156 469.257812 604.273438 473.003906 C 606.109375 484.171875 607.75 495.375 609.199219 506.601562 C 611.167969 521.863281 612.800781 537.179688 613.964844 552.53125 "/><path style=" stroke:none;fill-rule:nonzero;fill:#000000;fill-opacity:1;" d="M 605.601562 602.535156 C 605.601562 609.417969 605.601562 616.296875 605.601562 623.179688 C 605.601562 625.554688 601.917969 625.550781 601.917969 623.179688 C 601.917969 616.296875 601.917969 609.417969 601.917969 602.535156 C 601.917969 600.160156 605.601562 600.167969 605.601562 602.535156 "/><path style=" stroke:none;fill-rule:nonzero;fill:#000000;fill-opacity:1;" d="M 605.601562 590.742188 C 605.605469 593.117188 601.921875 593.113281 601.917969 590.742188 C 601.914062 582.523438 601.628906 574.308594 601.21875 566.101562 C 600.519531 552.074219 599.445312 538.066406 598.179688 524.078125 C 597.589844 517.625 596.980469 511.175781 596.265625 504.738281 C 596.160156 503.742188 597.199219 502.894531 598.109375 502.894531 C 599.183594 502.894531 599.84375 503.746094 599.953125 504.738281 C 600.199219 506.96875 600.425781 509.199219 600.652344 511.425781 C 601.828125 523.101562 602.851562 534.792969 603.691406 546.496094 C 604.753906 561.214844 605.59375 575.980469 605.601562 590.742188 "/><path style=" stroke:none;fill-rule:nonzero;fill:#d64193;fill-opacity:1;" d="M 599.257812 459.027344 C 593.785156 461.101562 588.316406 463.183594 582.84375 465.261719 C 566.695312 471.398438 550.542969 477.535156 534.390625 483.675781 C 533.808594 483.894531 533.226562 484.117188 532.644531 484.335938 C 532.644531 478.988281 532.644531 473.644531 532.644531 468.296875 C 532.644531 454.964844 532.644531 441.625 532.644531 428.292969 C 532.644531 427.082031 532.644531 425.867188 532.644531 424.65625 C 539.964844 428.429688 547.285156 432.207031 554.601562 435.984375 C 567.667969 442.726562 580.734375 449.46875 593.800781 456.207031 C 595.617188 457.148438 597.4375 458.085938 599.257812 459.027344 "/><path style=" stroke:none;fill-rule:nonzero;fill:#ffa0cf;fill-opacity:1;" d="M 601.527344 670.570312 C 600.632812 671.796875 599.660156 672.964844 598.605469 674.058594 C 593.082031 679.769531 585.59375 681.25 577.871094 682.671875 C 566.234375 684.816406 554.421875 686.035156 542.644531 687.117188 C 526.515625 688.601562 510.34375 689.640625 494.167969 690.476562 C 475.386719 691.449219 456.589844 692.128906 437.789062 692.578125 C 418.011719 693.054688 398.226562 693.28125 378.445312 693.242188 C 359.566406 693.203125 340.6875 692.925781 321.820312 692.289062 C 305.425781 691.730469 289.03125 690.925781 272.679688 689.53125 C 260.707031 688.511719 248.667969 687.289062 236.890625 684.839844 C 228.1875 683.035156 221.082031 678.453125 215.5625 671.875 C 216.402344 670.765625 217.238281 669.652344 218.078125 668.539062 C 221.050781 664.59375 224.027344 660.648438 227.003906 656.703125 C 231.386719 650.886719 235.769531 645.078125 240.152344 639.265625 C 245.496094 632.175781 250.847656 625.082031 256.191406 617.996094 C 262.074219 610.195312 267.957031 602.394531 273.835938 594.597656 C 279.746094 586.753906 285.660156 578.914062 291.570312 571.074219 C 297.082031 563.765625 302.597656 556.453125 308.109375 549.144531 C 312.769531 542.960938 317.429688 536.78125 322.085938 530.601562 C 325.441406 526.15625 328.796875 521.707031 332.148438 517.261719 C 333.511719 515.453125 334.960938 513.675781 336.289062 511.828125 C 351.011719 515.945312 365.730469 520.054688 380.453125 524.167969 C 390.625 527.007812 400.796875 529.851562 410.972656 532.695312 C 412.332031 533.074219 413.402344 533.527344 414.773438 533.050781 C 417.769531 532.011719 420.710938 530.796875 423.675781 529.667969 C 437.480469 524.421875 451.289062 519.175781 465.09375 513.933594 C 471.144531 511.628906 477.203125 509.332031 483.257812 507.03125 C 484.015625 508.082031 484.773438 509.128906 485.535156 510.179688 C 488.441406 514.203125 491.351562 518.226562 494.261719 522.246094 C 498.5625 528.195312 502.867188 534.144531 507.167969 540.09375 C 512.417969 547.351562 517.664062 554.609375 522.914062 561.867188 C 528.640625 569.785156 534.363281 577.699219 540.089844 585.617188 C 545.894531 593.640625 551.695312 601.660156 557.496094 609.6875 C 562.910156 617.167969 568.320312 624.648438 573.730469 632.128906 C 578.304688 638.453125 582.875 644.773438 587.445312 651.097656 C 590.734375 655.640625 594.019531 660.1875 597.308594 664.730469 C 598.714844 666.679688 600.113281 668.632812 601.527344 670.570312 "/><path style=" stroke:none;fill-rule:nonzero;fill:#ffc92b;fill-opacity:1;" d="M 529.058594 485.699219 C 513.832031 491.484375 498.605469 497.269531 483.378906 503.058594 C 483.296875 503.082031 483.21875 503.113281 483.136719 503.152344 C 481.203125 503.882812 479.269531 504.617188 477.339844 505.351562 C 461.765625 511.269531 446.191406 517.1875 430.617188 523.105469 C 426.105469 524.820312 421.597656 526.53125 417.085938 528.246094 C 415.996094 528.660156 414.859375 529.019531 413.792969 529.496094 C 413.769531 529.507812 413.714844 529.523438 413.648438 529.542969 C 413.058594 529.300781 412.21875 529.214844 411.683594 529.066406 C 410.117188 528.625 408.542969 528.1875 406.980469 527.75 C 401.753906 526.292969 396.523438 524.832031 391.300781 523.371094 C 374.871094 518.78125 358.445312 514.191406 342.015625 509.605469 C 340.066406 509.058594 338.113281 508.511719 336.160156 507.96875 C 336.074219 507.933594 335.992188 507.914062 335.910156 507.894531 C 318.335938 502.988281 300.765625 498.078125 283.191406 493.167969 C 273.488281 490.457031 263.785156 487.75 254.085938 485.039062 C 254.085938 479.457031 254.085938 473.875 254.085938 468.296875 C 254.085938 454.964844 254.085938 441.625 254.085938 428.292969 C 254.085938 412.125 254.085938 395.960938 254.085938 379.792969 C 254.085938 365.820312 254.085938 351.847656 254.085938 337.875 C 254.085938 333.28125 254.085938 328.691406 254.085938 324.097656 C 254.085938 322.460938 254.207031 320.757812 254.171875 319.089844 C 256.027344 319.089844 257.878906 319.089844 259.734375 319.089844 C 266.46875 319.089844 273.207031 319.089844 279.941406 319.089844 C 289.96875 319.089844 299.992188 319.089844 310.019531 319.089844 C 322.167969 319.089844 334.316406 319.089844 346.464844 319.089844 C 359.859375 319.089844 373.253906 319.089844 386.652344 319.089844 C 400.082031 319.089844 413.515625 319.089844 426.945312 319.089844 C 439.554688 319.089844 452.164062 319.089844 464.769531 319.089844 C 475.355469 319.089844 485.9375 319.089844 496.523438 319.089844 C 504.183594 319.089844 511.847656 319.089844 519.511719 319.089844 C 522.640625 319.089844 525.820312 319.246094 528.960938 319.148438 C 528.960938 324.109375 528.960938 329.070312 528.960938 334.03125 C 528.960938 347.363281 528.960938 360.699219 528.960938 374.035156 C 528.960938 389.882812 528.960938 405.726562 528.960938 421.574219 C 528.941406 421.71875 528.941406 421.859375 528.960938 422 C 528.960938 422.179688 528.960938 422.355469 528.960938 422.535156 C 528.960938 436.503906 528.960938 450.480469 528.960938 464.453125 C 528.960938 471.21875 528.742188 478.023438 528.960938 484.789062 C 528.964844 484.882812 528.960938 484.980469 528.960938 485.078125 C 528.960938 485.308594 528.996094 485.515625 529.058594 485.699219 "/><path style=" stroke:none;fill-rule:nonzero;fill:#ffa0cf;fill-opacity:1;" d="M 332.464844 510.761719 C 331.875 511.542969 331.289062 512.324219 330.699219 513.105469 C 327.722656 517.050781 324.75 521 321.773438 524.941406 C 317.386719 530.753906 313.007812 536.566406 308.621094 542.378906 C 303.277344 549.472656 297.929688 556.5625 292.585938 563.652344 C 286.703125 571.449219 280.820312 579.25 274.941406 587.050781 C 269.027344 594.890625 263.117188 602.730469 257.207031 610.570312 C 251.691406 617.878906 246.179688 625.191406 240.667969 632.503906 C 236.007812 638.679688 231.347656 644.863281 226.6875 651.042969 C 223.335938 655.488281 219.980469 659.9375 216.628906 664.386719 C 215.507812 665.871094 214.335938 667.332031 213.214844 668.824219 C 212.910156 668.390625 212.605469 667.949219 212.3125 667.5 C 205.214844 656.714844 201.527344 643.914062 199.050781 631.359375 C 196.089844 616.351562 194.960938 601.003906 194.597656 585.726562 C 194.226562 570.054688 194.738281 554.363281 195.796875 538.726562 C 196.6875 525.546875 197.96875 512.394531 199.589844 499.289062 C 200.550781 491.488281 201.628906 483.722656 202.886719 475.941406 C 202.960938 475.503906 203.035156 475.0625 203.105469 474.625 C 209.042969 476.285156 214.980469 477.941406 220.917969 479.601562 C 236.78125 484.035156 252.640625 488.464844 268.496094 492.894531 C 288.175781 498.390625 307.855469 503.886719 327.535156 509.386719 C 329.179688 509.84375 330.820312 510.304688 332.464844 510.761719 "/><path style=" stroke:none;fill-rule:nonzero;fill:#d64193;fill-opacity:1;" d="M 250.402344 426.050781 C 250.402344 438.851562 250.402344 451.652344 250.402344 464.453125 C 250.402344 470.957031 250.203125 477.5 250.382812 484.003906 C 244.0625 482.238281 237.742188 480.472656 231.421875 478.707031 C 222.671875 476.261719 213.921875 473.816406 205.167969 471.375 C 210.105469 466.425781 215.042969 461.476562 219.980469 456.53125 C 229.050781 447.441406 238.125 438.355469 247.195312 429.265625 C 248.261719 428.195312 249.332031 427.121094 250.402344 426.050781 "/><path style=" stroke:none;fill-rule:nonzero;fill:#fcefe6;fill-opacity:1;" d="M 267.894531 332.574219 C 267.894531 337.492188 267.894531 342.414062 267.894531 347.332031 C 267.894531 355.183594 267.894531 363.03125 267.894531 370.882812 C 267.894531 372.695312 267.894531 374.507812 267.894531 376.316406 C 267.894531 378.894531 271.898438 378.902344 271.898438 376.316406 C 271.898438 371.398438 271.898438 366.476562 271.898438 361.558594 C 271.898438 353.707031 271.898438 345.859375 271.898438 338.007812 C 271.898438 336.195312 271.898438 334.386719 271.898438 332.574219 C 271.898438 329.992188 267.894531 329.992188 267.894531 332.574219 "/><path style=" stroke:none;fill-rule:nonzero;fill:#fcefe6;fill-opacity:1;" d="M 267.894531 390.027344 C 267.894531 396.164062 267.894531 402.304688 267.894531 408.441406 C 267.894531 411.019531 271.898438 411.023438 271.898438 408.441406 C 271.898438 402.304688 271.898438 396.164062 271.898438 390.027344 C 271.898438 387.449219 267.894531 387.441406 267.894531 390.027344 "/><path style=" stroke:none;fill-rule:nonzero;fill:#f792cc;fill-opacity:1;" d="M 390.714844 375.496094 C 373.550781 322.144531 303.902344 334.671875 306.480469 393.574219 C 309.011719 451.378906 391.019531 498.792969 391.019531 498.792969 C 391.019531 498.792969 472.421875 451.378906 474.949219 393.574219 C 477.527344 334.671875 407.914062 321.449219 390.714844 375.496094 "/><path style=" stroke:none;fill-rule:nonzero;fill:#000000;fill-opacity:1;" d="M 420.625 476.09375 C 414.351562 481.269531 407.839844 486.152344 401.128906 490.742188 C 397.839844 492.992188 394.199219 494.90625 391.003906 497.277344 C 382.46875 492.28125 374.347656 486.433594 366.554688 480.375 C 350.199219 467.667969 334.726562 453.0625 323.1875 435.753906 C 311.308594 417.9375 303.875 396.09375 309.710938 374.734375 C 314.25 358.117188 327.867188 344.71875 345.421875 343.121094 C 353.390625 342.398438 361.449219 344.132812 368.398438 348.117188 C 376.402344 352.703125 382.460938 359.953125 386.441406 368.207031 C 387.605469 370.621094 388.574219 373.117188 389.410156 375.664062 C 389.445312 376.109375 389.746094 376.441406 390.132812 376.613281 C 390.183594 376.636719 390.238281 376.652344 390.292969 376.671875 C 390.308594 376.675781 390.324219 376.679688 390.339844 376.6875 C 390.398438 376.703125 390.453125 376.710938 390.511719 376.71875 C 390.539062 376.722656 390.566406 376.726562 390.59375 376.730469 C 390.625 376.734375 390.652344 376.734375 390.683594 376.734375 C 390.902344 376.742188 391.117188 376.703125 391.316406 376.605469 C 391.699219 376.433594 391.992188 376.101562 392.027344 375.65625 C 395.074219 366.277344 400.222656 357.519531 407.972656 351.28125 C 414.28125 346.199219 422.15625 343.125 430.25 342.71875 C 447.285156 341.855469 462.511719 352.410156 469.296875 367.785156 C 478.074219 387.675781 472.976562 410.566406 462.648438 428.769531 C 452.183594 447.207031 436.878906 462.691406 420.625 476.09375 Z M 473.246094 370.847656 C 467.515625 354.066406 452.84375 341.34375 434.863281 340.164062 C 416.113281 338.933594 400.019531 350.988281 392.398438 367.578125 C 391.789062 368.910156 391.226562 370.261719 390.707031 371.628906 C 387.492188 363.335938 382.578125 355.667969 375.640625 349.996094 C 368.992188 344.558594 360.886719 341.199219 352.316406 340.503906 C 334.960938 339.089844 318.585938 349.101562 310.859375 364.511719 C 300.871094 384.425781 304.925781 408.144531 315 427.128906 C 325.332031 446.597656 341.230469 462.902344 358.070312 476.863281 C 368.015625 485.109375 378.585938 493.183594 389.835938 499.597656 C 390.015625 499.699219 390.1875 499.808594 390.367188 499.910156 C 390.769531 500.140625 391.269531 500.144531 391.671875 499.910156 C 400.984375 494.480469 409.789062 488.015625 418.230469 481.335938 C 435.164062 467.9375 451.105469 452.433594 462.554688 433.992188 C 474.109375 415.378906 480.566406 392.289062 473.246094 370.847656 "/><path style=" stroke:none;fill-rule:nonzero;fill:#fcefe6;fill-opacity:1;" d="M 346.554688 355.335938 C 345.488281 355.183594 344.40625 355.140625 343.328125 355.148438 C 340.910156 355.171875 338.472656 355.476562 336.136719 356.089844 C 333.027344 356.914062 330.105469 358.316406 327.574219 360.308594 C 324.492188 362.738281 322.265625 366.03125 320.804688 369.652344 C 318.757812 374.730469 318.300781 380.390625 318.523438 385.816406 C 318.5625 386.683594 318.617188 387.546875 318.6875 388.410156 C 318.742188 389.078125 319.21875 389.652344 319.925781 389.652344 C 320.558594 389.652344 321.222656 389.082031 321.167969 388.410156 C 320.71875 382.871094 320.859375 377.191406 322.621094 371.882812 C 323.78125 368.382812 325.660156 365.269531 328.441406 362.804688 C 328.742188 362.539062 329.050781 362.28125 329.367188 362.03125 C 329.140625 362.210938 329.59375 361.863281 329.667969 361.8125 C 329.828125 361.699219 329.988281 361.585938 330.148438 361.472656 C 330.800781 361.027344 331.476562 360.621094 332.175781 360.25 C 332.476562 360.09375 332.78125 359.945312 333.082031 359.800781 C 333.25 359.722656 333.414062 359.652344 333.578125 359.578125 C 333.632812 359.550781 333.921875 359.429688 333.613281 359.558594 C 333.722656 359.515625 333.832031 359.46875 333.945312 359.425781 C 334.589844 359.167969 335.246094 358.9375 335.910156 358.734375 C 337.15625 358.359375 338.433594 358.078125 339.722656 357.890625 C 339.796875 357.878906 339.867188 357.867188 339.941406 357.859375 C 340.207031 357.820312 339.632812 357.894531 339.898438 357.863281 C 340.042969 357.847656 340.183594 357.828125 340.324219 357.8125 C 340.597656 357.78125 340.871094 357.753906 341.144531 357.730469 C 341.664062 357.6875 342.1875 357.65625 342.707031 357.640625 C 343.550781 357.617188 344.394531 357.625 345.234375 357.679688 C 345.472656 357.695312 345.714844 357.71875 345.953125 357.738281 C 346.113281 357.753906 346.542969 357.820312 345.898438 357.726562 C 346.558594 357.820312 347.230469 357.566406 347.421875 356.859375 C 347.582031 356.28125 347.222656 355.429688 346.554688 355.335938 "/><path style=" stroke:none;fill-rule:nonzero;fill:#ffffff;fill-opacity:1;" d="M 358.914062 419.78125 C 354.792969 421.023438 350.496094 421.691406 346.210938 422.0625 C 341.269531 422.496094 336.28125 422.554688 331.328125 422.199219 C 326.304688 421.84375 321.003906 421.175781 316.457031 418.890625 C 315.492188 418.402344 314.574219 417.84375 313.699219 417.207031 C 310.332031 414.417969 309.980469 409.183594 313.574219 406.332031 C 315.136719 405.089844 317.28125 404.335938 319.144531 403.683594 C 321.578125 402.832031 324.09375 402.222656 326.636719 401.800781 C 333.027344 400.738281 339.636719 400.984375 346.082031 401.222656 C 349.441406 401.347656 352.859375 401.515625 356.191406 402.09375 C 353.050781 403.597656 350.875 406.808594 350.875 410.527344 C 350.875 415.246094 354.375 419.144531 358.914062 419.78125 "/><path style=" stroke:none;fill-rule:nonzero;fill:#000000;fill-opacity:1;" d="M 346.210938 422.0625 C 350.496094 421.691406 354.792969 421.023438 358.914062 419.78125 C 354.375 419.144531 350.875 415.246094 350.875 410.527344 C 350.875 406.808594 353.050781 403.597656 356.191406 402.09375 C 352.859375 401.515625 349.441406 401.347656 346.082031 401.222656 C 339.636719 400.984375 333.027344 400.738281 326.636719 401.800781 C 324.09375 402.222656 321.578125 402.832031 319.144531 403.683594 C 317.28125 404.335938 315.136719 405.089844 313.574219 406.332031 C 309.980469 409.183594 310.332031 414.417969 313.699219 417.207031 C 314.574219 417.84375 315.492188 418.402344 316.457031 418.890625 C 321.003906 421.175781 326.304688 421.84375 331.328125 422.199219 C 336.28125 422.554688 341.269531 422.496094 346.210938 422.0625 Z M 370.761719 408.125 C 372.011719 411.449219 371.929688 414.875 369.492188 417.597656 C 366.882812 420.515625 362.769531 422.003906 359.113281 423.042969 C 354.175781 424.445312 349.007812 425.105469 343.898438 425.421875 C 338.621094 425.753906 333.292969 425.683594 328.039062 425.082031 C 322.4375 424.445312 316.578125 423.285156 311.957031 419.859375 C 311.894531 419.816406 311.835938 419.769531 311.785156 419.71875 C 311.730469 419.683594 311.679688 419.648438 311.632812 419.609375 C 310.558594 418.777344 309.636719 417.71875 308.996094 416.515625 C 306.398438 411.652344 308.277344 405.480469 313.113281 402.855469 C 317.847656 400.285156 323.214844 398.988281 328.527344 398.339844 C 335.300781 397.511719 342.332031 397.773438 349.136719 398.183594 C 353.851562 398.464844 358.808594 398.898438 363.214844 400.726562 C 366.675781 402.167969 369.425781 404.570312 370.761719 408.125 "/><path style=" stroke:none;fill-rule:nonzero;fill:#ffffff;fill-opacity:1;" d="M 458.699219 419.78125 C 454.578125 421.023438 450.277344 421.691406 445.996094 422.0625 C 441.050781 422.496094 436.0625 422.554688 431.113281 422.199219 C 426.089844 421.84375 420.789062 421.175781 416.238281 418.890625 C 415.277344 418.402344 414.355469 417.84375 413.484375 417.207031 C 410.117188 414.417969 409.765625 409.183594 413.359375 406.332031 C 414.921875 405.089844 417.0625 404.335938 418.929688 403.683594 C 421.363281 402.832031 423.878906 402.222656 426.421875 401.800781 C 432.8125 400.738281 439.421875 400.984375 445.867188 401.222656 C 449.222656 401.347656 452.644531 401.515625 455.976562 402.09375 C 452.832031 403.597656 450.660156 406.808594 450.660156 410.527344 C 450.660156 415.246094 454.15625 419.144531 458.699219 419.78125 "/><path style=" stroke:none;fill-rule:nonzero;fill:#000000;fill-opacity:1;" d="M 445.996094 422.0625 C 450.277344 421.691406 454.578125 421.023438 458.699219 419.78125 C 454.15625 419.144531 450.660156 415.246094 450.660156 410.527344 C 450.660156 406.808594 452.832031 403.597656 455.976562 402.09375 C 452.644531 401.515625 449.222656 401.347656 445.867188 401.222656 C 439.421875 400.984375 432.8125 400.738281 426.421875 401.800781 C 423.878906 402.222656 421.363281 402.832031 418.929688 403.683594 C 417.0625 404.335938 414.921875 405.089844 413.359375 406.332031 C 409.765625 409.183594 410.117188 414.417969 413.484375 417.207031 C 414.355469 417.84375 415.277344 418.402344 416.238281 418.890625 C 420.789062 421.175781 426.089844 421.84375 431.113281 422.199219 C 436.0625 422.554688 441.050781 422.496094 445.996094 422.0625 Z M 470.546875 408.125 C 471.792969 411.449219 471.710938 414.875 469.277344 417.597656 C 466.671875 420.515625 462.554688 422.003906 458.898438 423.042969 C 453.957031 424.445312 448.792969 425.105469 443.679688 425.421875 C 438.40625 425.753906 433.078125 425.683594 427.824219 425.082031 C 422.222656 424.445312 416.359375 423.285156 411.738281 419.859375 C 411.679688 419.816406 411.625 419.769531 411.570312 419.71875 C 411.515625 419.683594 411.464844 419.648438 411.417969 419.609375 C 410.34375 418.777344 409.421875 417.71875 408.78125 416.515625 C 406.183594 411.652344 408.058594 405.480469 412.898438 402.855469 C 417.628906 400.285156 423 398.988281 428.3125 398.339844 C 435.085938 397.511719 442.117188 397.773438 448.917969 398.183594 C 453.636719 398.464844 458.589844 398.898438 463 400.726562 C 466.457031 402.167969 469.207031 404.570312 470.546875 408.125 "/></g></svg>