<svg xmlns="http://www.w3.org/2000/svg" xmlns:xlink="http://www.w3.org/1999/xlink" zoomAndPan="magnify" preserveAspectRatio="xMidYMid meet" version="1.2" viewBox="99.69 267.79 611.04 480.6"><defs><clipPath id="2e61a3dca8"><path d="M 261 443 L 382 443 L 382 748.421875 L 261 748.421875 Z M 261 443 "/></clipPath></defs><g id="3839937570"><path style=" stroke:none;fill-rule:nonzero;fill:#693037;fill-opacity:1;" d="M 503.648438 413.199219 C 394.757812 387.042969 276.855469 379.066406 173.371094 421.855469 C 152.59375 430.445312 131.03125 442.691406 122.816406 463.609375 C 117.117188 478.125 118.980469 494.878906 125.476562 509.054688 C 131.972656 523.230469 142.738281 535.074219 154.648438 545.144531 C 188.238281 573.542969 231.269531 588.933594 274.710938 595.875 C 318.152344 602.816406 362.425781 601.835938 406.40625 600.839844 C 439.636719 600.085938 472.867188 599.332031 506.097656 598.578125 C 536.703125 597.886719 566.335938 593.5 596.253906 587.023438 C 626.171875 580.550781 656.667969 571.542969 678.324219 549.914062 C 685.46875 542.78125 691.972656 534.113281 692.851562 524.054688 C 694.09375 509.875 684.035156 497.367188 673.863281 487.402344 C 630.070312 444.496094 570.261719 429.203125 503.648438 413.199219 Z M 503.648438 413.199219 "/><path style=" stroke:none;fill-rule:nonzero;fill:#e75846;fill-opacity:1;" d="M 700.898438 475.429688 C 693.230469 459.242188 681.308594 445.492188 669.238281 432.25 C 631.699219 391.078125 590.910156 352.386719 544.171875 322.046875 C 519.769531 306.207031 493.644531 292.691406 466.351562 282.628906 C 421.621094 266.136719 372.625 265.609375 327.425781 280.761719 C 250.320312 306.609375 205.808594 345.433594 156.714844 389.105469 C 130.957031 412.011719 105.242188 439.570312 102.054688 473.882812 C 98.789062 509.070312 121.175781 542.792969 150.558594 562.449219 C 179.941406 582.105469 215.394531 590.191406 250.164062 596.601562 C 382.625 621.015625 523.425781 625.710938 648.097656 574.753906 C 671.691406 565.109375 696.484375 551.441406 705.363281 527.558594 C 711.609375 510.765625 708.570312 491.621094 700.898438 475.429688 Z M 669.0625 541.753906 C 667.90625 545.726562 663.910156 548.058594 660.226562 549.941406 C 588.515625 586.613281 507.425781 603.511719 426.875 603.300781 C 346.324219 603.085938 266.285156 586.09375 190.78125 558.035156 C 170.953125 550.667969 149.8125 541.125 140.226562 522.273438 C 133.71875 509.476562 134.621094 493.886719 140.613281 480.839844 C 165.132812 427.457031 297.339844 460.058594 350.800781 477.617188 C 404.257812 495.175781 457.089844 516.488281 512.910156 523.59375 C 558.257812 529.367188 604.238281 525.570312 649.910156 527.5625 C 654.515625 527.765625 659.300781 528.074219 663.324219 530.320312 C 667.347656 532.5625 670.351562 537.332031 669.0625 541.753906 Z M 669.0625 541.753906 "/><path style=" stroke:none;fill-rule:nonzero;fill:#361021;fill-opacity:1;" d="M 300.933594 513.628906 C 275.945312 502.402344 253.039062 486.363281 233.910156 466.753906 C 254.90625 484.242188 277.289062 499.921875 300.933594 513.628906 Z M 300.933594 513.628906 "/><path style=" stroke:none;fill-rule:nonzero;fill:#361021;fill-opacity:1;" d="M 160.519531 480.355469 C 192.71875 498.78125 228.722656 510.359375 265.640625 514.042969 C 265.640625 514.042969 273.046875 514.714844 273.046875 514.714844 L 265.601562 514.585938 C 228.402344 512.992188 191.421875 501.164062 160.519531 480.355469 Z M 160.519531 480.355469 "/><path style=" stroke:none;fill-rule:nonzero;fill:#361021;fill-opacity:1;" d="M 282.5625 531.992188 C 250.039062 541.039062 215.152344 541.839844 182.144531 534.828125 C 179.949219 534.332031 177.761719 533.808594 175.578125 533.269531 C 177.808594 533.589844 180.027344 533.929688 182.242188 534.292969 C 215.515625 539.222656 249.542969 538.378906 282.5625 531.992188 Z M 282.5625 531.992188 "/><path style=" stroke:none;fill-rule:nonzero;fill:#361021;fill-opacity:1;" d="M 285.617188 545.371094 C 271.3125 553.777344 254.152344 557.742188 237.609375 556.429688 C 254.164062 554.839844 270.039062 551.191406 285.617188 545.371094 Z M 285.617188 545.371094 "/><path style=" stroke:none;fill-rule:nonzero;fill:#361021;fill-opacity:1;" d="M 292.183594 560.753906 C 289.007812 567.269531 281.746094 571.867188 274.488281 571.921875 C 281.125 568.941406 286.644531 565.46875 292.183594 560.753906 Z M 292.183594 560.753906 "/><path style=" stroke:none;fill-rule:nonzero;fill:#361021;fill-opacity:1;" d="M 314.957031 507.496094 C 303.316406 499.929688 294.691406 488.007812 289.40625 475.304688 C 297.25 486.671875 305.164062 497.753906 314.957031 507.496094 Z M 314.957031 507.496094 "/><path style=" stroke:none;fill-rule:nonzero;fill:#361021;fill-opacity:1;" d="M 334.261719 506.402344 C 327.472656 500.632812 321.367188 492.628906 318.550781 484.128906 C 323.988281 491.445312 329.492188 498.621094 334.261719 506.402344 Z M 334.261719 506.402344 "/><path style=" stroke:none;fill-rule:nonzero;fill:#361021;fill-opacity:1;" d="M 360.203125 509.621094 C 355.394531 503.414062 349.539062 497.175781 347.171875 489.542969 C 351.988281 495.746094 357.832031 501.996094 360.203125 509.621094 Z M 360.203125 509.621094 "/><path style=" stroke:none;fill-rule:nonzero;fill:#361021;fill-opacity:1;" d="M 649.9375 543.355469 C 615.289062 553.683594 577.429688 553.242188 542.875 542.714844 C 542.875 542.714844 536.027344 540.421875 536.027344 540.421875 L 543.019531 542.1875 C 577.996094 550.644531 614.777344 551.011719 649.9375 543.355469 Z M 649.9375 543.355469 "/><path style=" stroke:none;fill-rule:nonzero;fill:#361021;fill-opacity:1;" d="M 600.078125 566.953125 C 567.816406 568.699219 535.128906 560.003906 507.496094 543.382812 C 504.101562 541.234375 499.230469 538.027344 496.054688 535.640625 C 499.433594 537.679688 504.453125 540.613281 507.996094 542.507812 C 536.21875 557.777344 568.007812 566.070312 600.078125 566.953125 Z M 600.078125 566.953125 "/><path style=" stroke:none;fill-rule:nonzero;fill:#361021;fill-opacity:1;" d="M 497.496094 548.933594 C 511.332031 561.195312 527.734375 570.46875 545.515625 575.582031 C 547.738281 576.25 550.972656 577.0625 553.207031 577.628906 C 551.882812 577.507812 550.554688 577.363281 549.234375 577.199219 C 529.414062 574.335938 510.492188 564.199219 497.496094 548.933594 Z M 497.496094 548.933594 "/><path style=" stroke:none;fill-rule:nonzero;fill:#361021;fill-opacity:1;" d="M 527.828125 587.769531 C 519.097656 585.632812 511.316406 579 507.855469 570.703125 C 513.839844 577.453125 520.21875 582.917969 527.828125 587.769531 Z M 527.828125 587.769531 "/><path style=" stroke:none;fill-rule:nonzero;fill:#361021;fill-opacity:1;" d="M 300.933594 513.628906 C 275.945312 502.402344 253.039062 486.363281 233.910156 466.753906 C 254.90625 484.242188 277.289062 499.921875 300.933594 513.628906 Z M 300.933594 513.628906 "/><path style=" stroke:none;fill-rule:nonzero;fill:#361021;fill-opacity:1;" d="M 160.519531 480.355469 C 192.71875 498.78125 228.722656 510.359375 265.640625 514.042969 C 265.640625 514.042969 273.046875 514.714844 273.046875 514.714844 L 265.601562 514.585938 C 228.402344 512.992188 191.421875 501.164062 160.519531 480.355469 Z M 160.519531 480.355469 "/><path style=" stroke:none;fill-rule:nonzero;fill:#361021;fill-opacity:1;" d="M 282.5625 531.992188 C 250.039062 541.039062 215.152344 541.839844 182.144531 534.828125 C 179.949219 534.332031 177.761719 533.808594 175.578125 533.269531 C 177.808594 533.589844 180.027344 533.929688 182.242188 534.292969 C 215.515625 539.222656 249.542969 538.378906 282.5625 531.992188 Z M 282.5625 531.992188 "/><path style=" stroke:none;fill-rule:nonzero;fill:#361021;fill-opacity:1;" d="M 285.617188 545.371094 C 271.3125 553.777344 254.152344 557.742188 237.609375 556.429688 C 254.164062 554.839844 270.039062 551.191406 285.617188 545.371094 Z M 285.617188 545.371094 "/><path style=" stroke:none;fill-rule:nonzero;fill:#361021;fill-opacity:1;" d="M 292.183594 560.753906 C 289.007812 567.269531 281.746094 571.867188 274.488281 571.921875 C 281.125 568.941406 286.644531 565.46875 292.183594 560.753906 Z M 292.183594 560.753906 "/><path style=" stroke:none;fill-rule:nonzero;fill:#361021;fill-opacity:1;" d="M 314.957031 507.496094 C 303.316406 499.929688 294.691406 488.007812 289.40625 475.304688 C 297.25 486.671875 305.164062 497.753906 314.957031 507.496094 Z M 314.957031 507.496094 "/><path style=" stroke:none;fill-rule:nonzero;fill:#361021;fill-opacity:1;" d="M 334.261719 506.402344 C 327.472656 500.632812 321.367188 492.628906 318.550781 484.128906 C 323.988281 491.445312 329.492188 498.621094 334.261719 506.402344 Z M 334.261719 506.402344 "/><path style=" stroke:none;fill-rule:nonzero;fill:#361021;fill-opacity:1;" d="M 360.203125 509.621094 C 355.394531 503.414062 349.539062 497.175781 347.171875 489.542969 C 351.988281 495.746094 357.832031 501.996094 360.203125 509.621094 Z M 360.203125 509.621094 "/><path style=" stroke:none;fill-rule:nonzero;fill:#361021;fill-opacity:1;" d="M 649.9375 543.355469 C 615.289062 553.683594 577.429688 553.242188 542.875 542.714844 C 542.875 542.714844 536.027344 540.421875 536.027344 540.421875 L 543.019531 542.1875 C 577.996094 550.644531 614.777344 551.011719 649.9375 543.355469 Z M 649.9375 543.355469 "/><path style=" stroke:none;fill-rule:nonzero;fill:#361021;fill-opacity:1;" d="M 600.078125 566.953125 C 567.816406 568.699219 535.128906 560.003906 507.496094 543.382812 C 504.101562 541.234375 499.230469 538.027344 496.054688 535.640625 C 499.433594 537.679688 504.453125 540.613281 507.996094 542.507812 C 536.21875 557.777344 568.007812 566.070312 600.078125 566.953125 Z M 600.078125 566.953125 "/><path style=" stroke:none;fill-rule:nonzero;fill:#361021;fill-opacity:1;" d="M 497.496094 548.933594 C 511.332031 561.195312 527.734375 570.46875 545.515625 575.582031 C 547.738281 576.25 550.972656 577.0625 553.207031 577.628906 C 551.882812 577.507812 550.554688 577.363281 549.234375 577.199219 C 529.414062 574.335938 510.492188 564.199219 497.496094 548.933594 Z M 497.496094 548.933594 "/><path style=" stroke:none;fill-rule:nonzero;fill:#361021;fill-opacity:1;" d="M 527.828125 587.769531 C 519.097656 585.632812 511.316406 579 507.855469 570.703125 C 513.839844 577.453125 520.21875 582.917969 527.828125 587.769531 Z M 527.828125 587.769531 "/><path style=" stroke:none;fill-rule:nonzero;fill:#e75846;fill-opacity:1;" d="M 700.898438 475.429688 C 693.230469 459.242188 681.308594 445.492188 669.238281 432.25 C 631.699219 391.078125 590.910156 352.386719 544.171875 322.046875 C 519.769531 306.207031 493.644531 292.691406 466.351562 282.628906 C 421.621094 266.136719 372.625 265.609375 327.425781 280.761719 C 250.320312 306.609375 205.808594 345.433594 156.714844 389.105469 C 130.957031 412.011719 105.242188 439.570312 102.054688 473.882812 C 98.789062 509.070312 121.175781 542.792969 150.558594 562.449219 C 179.941406 582.105469 215.394531 590.191406 250.164062 596.601562 C 255.871094 597.652344 261.597656 598.652344 267.335938 599.628906 C 267.628906 593.703125 269.941406 588.171875 273.511719 583.640625 C 245.480469 576.691406 217.835938 568.089844 190.78125 558.035156 C 170.953125 550.667969 149.8125 541.125 140.226562 522.273438 C 133.71875 509.476562 134.621094 493.886719 140.613281 480.839844 C 165.132812 427.457031 297.339844 460.058594 350.800781 477.617188 C 404.257812 495.175781 457.089844 516.488281 512.910156 523.59375 C 558.257812 529.367188 604.238281 525.570312 649.910156 527.5625 C 654.515625 527.765625 659.300781 528.074219 663.324219 530.320312 C 667.347656 532.5625 670.351562 537.332031 669.0625 541.753906 C 667.90625 545.726562 663.910156 548.058594 660.226562 549.941406 C 627.058594 566.902344 591.875 579.582031 555.675781 588.347656 C 557.902344 592.328125 559.15625 596.882812 559.328125 601.585938 C 589.574219 595.308594 619.269531 586.535156 648.097656 574.753906 C 671.691406 565.109375 696.484375 551.441406 705.363281 527.558594 C 711.609375 510.765625 708.570312 491.621094 700.898438 475.429688 Z M 700.898438 475.429688 "/><path style=" stroke:none;fill-rule:nonzero;fill:#fdede3;fill-opacity:1;" d="M 393.730469 268.664062 C 387.308594 268.234375 377.21875 266.046875 374.648438 270.78125 C 370.359375 278.671875 369.464844 288.699219 372.488281 297.28125 C 377.332031 311.007812 390.222656 320.792969 404.167969 324.992188 C 418.109375 329.1875 433.058594 328.507812 447.488281 326.550781 C 455.167969 325.507812 462.957031 324.0625 469.761719 320.359375 C 476.570312 316.65625 482.335938 310.328125 483.601562 302.683594 C 484.394531 297.878906 483.359375 293.128906 481.226562 288.753906 C 478.96875 284.128906 469.382812 282.039062 464.503906 280.394531 C 435.816406 270.71875 429.335938 269.640625 393.730469 268.664062 Z M 393.730469 268.664062 "/><path style=" stroke:none;fill-rule:nonzero;fill:#fdede3;fill-opacity:1;" d="M 443.253906 417.742188 C 433.425781 425.683594 430.511719 440.546875 435.4375 452.179688 C 440.359375 463.8125 452.160156 471.855469 464.675781 473.59375 C 477.191406 475.335938 490.132812 471.21875 500.304688 463.722656 C 512.496094 454.742188 521.144531 440.238281 520.707031 425.109375 C 520.273438 409.976562 509.445312 395.0625 494.578125 392.160156 C 486.15625 390.515625 477.34375 392.640625 469.660156 396.464844 C 461.976562 400.289062 456.449219 407.078125 443.253906 417.742188 Z M 443.253906 417.742188 "/><path style=" stroke:none;fill-rule:nonzero;fill:#fdede3;fill-opacity:1;" d="M 284.367188 398.871094 C 277.457031 401.617188 271.652344 407.488281 269.839844 414.699219 C 268.027344 421.90625 270.691406 430.261719 276.847656 434.433594 C 283.609375 439.015625 292.675781 437.960938 300.511719 435.664062 C 306.160156 434.007812 311.769531 431.722656 316.136719 427.785156 C 320.503906 423.84375 323.472656 418 322.765625 412.160156 C 321.964844 405.539062 316.589844 400.15625 310.4375 397.574219 C 304.285156 394.992188 297.089844 393.808594 284.367188 398.871094 Z M 284.367188 398.871094 "/><path style=" stroke:none;fill-rule:nonzero;fill:#fdede3;fill-opacity:1;" d="M 158.191406 387.789062 C 163.117188 397.800781 181.824219 406.515625 192.769531 404.335938 C 203.714844 402.15625 212.847656 394.1875 218.722656 384.703125 C 221.867188 379.621094 224.269531 373.832031 224.035156 367.863281 C 223.804688 361.894531 220.441406 355.785156 214.863281 353.636719 C 209.191406 351.453125 202.816406 353.679688 197.390625 356.425781 C 184.675781 362.863281 173.347656 372.144531 158.191406 387.789062 Z M 158.191406 387.789062 "/><path style=" stroke:none;fill-rule:nonzero;fill:#fdede3;fill-opacity:1;" d="M 263.085938 348.921875 C 260.316406 354.007812 262.140625 361.09375 267.023438 364.207031 C 271.90625 367.320312 279.105469 365.992188 282.554688 361.34375 C 286 356.691406 285.175781 349.421875 280.773438 345.660156 C 276.371094 341.898438 267.378906 341.035156 263.085938 348.921875 Z M 263.085938 348.921875 "/><path style=" stroke:none;fill-rule:nonzero;fill:#fdede3;fill-opacity:1;" d="M 373.28125 409.910156 C 370.917969 411.753906 370.292969 415.257812 371.269531 418.089844 C 372.242188 420.921875 374.53125 423.136719 377.082031 424.714844 C 380.0625 426.558594 383.90625 427.65625 387.054688 426.117188 C 389.125 425.105469 390.570312 423.082031 391.273438 420.890625 C 391.976562 418.703125 392.007812 416.351562 391.816406 414.058594 C 391.597656 411.476562 391.023438 408.753906 389.199219 406.910156 C 387.574219 405.269531 385.167969 404.585938 382.855469 404.582031 C 380.542969 404.578125 378.703125 405.675781 373.28125 409.910156 Z M 373.28125 409.910156 "/><path style=" stroke:none;fill-rule:nonzero;fill:#fdede3;fill-opacity:1;" d="M 621.8125 404.914062 C 618.214844 397.082031 610.140625 391.269531 601.519531 391.164062 C 592.894531 391.058594 584.351562 397.160156 582.394531 405.554688 C 581.046875 411.324219 582.679688 417.386719 585.03125 422.824219 C 587.582031 428.734375 590.996094 434.277344 595.121094 439.21875 C 598.054688 442.726562 601.582031 446.070312 606.027344 447.136719 C 611.523438 448.460938 617.488281 445.867188 621.132812 441.546875 C 624.78125 437.226562 626.347656 431.457031 626.558594 425.808594 C 626.765625 420.160156 626.148438 414.367188 621.8125 404.914062 Z M 621.8125 404.914062 "/><path style=" stroke:none;fill-rule:nonzero;fill:#fdede3;fill-opacity:1;" d="M 550.113281 477.316406 C 547.351562 482.515625 546.585938 488.910156 548.792969 494.367188 C 551.003906 499.820312 556.429688 504.035156 562.316406 504.097656 C 566.71875 504.140625 571.011719 501.898438 573.785156 498.476562 C 578.738281 492.359375 578.339844 482.574219 572.902344 476.878906 C 567.464844 471.1875 554.945312 468.210938 550.113281 477.316406 Z M 550.113281 477.316406 "/><path style=" stroke:none;fill-rule:nonzero;fill:#fdede3;fill-opacity:1;" d="M 691.578125 457.484375 C 688.207031 451.636719 679.800781 449.53125 672.847656 451.964844 C 665.894531 454.394531 660.628906 460.640625 658.558594 467.371094 C 656.488281 474.101562 657.304688 481.210938 659.628906 487.554688 C 663.5625 498.308594 671.855469 507.308594 682.5 512.371094 C 686.089844 514.078125 690.015625 515.363281 694.144531 515.355469 C 698.273438 515.347656 702.640625 513.90625 705.546875 510.910156 C 709.828125 506.492188 710.03125 499.949219 709.085938 494.304688 C 706.988281 481.761719 699.523438 471.253906 691.578125 457.484375 Z M 691.578125 457.484375 "/><path style=" stroke:none;fill-rule:nonzero;fill:#fdede3;fill-opacity:1;" d="M 128.878906 431.179688 C 126.992188 434.855469 125.070312 438.617188 124.492188 442.707031 C 123.914062 446.800781 124.917969 451.351562 128.054688 454.039062 C 132.148438 457.542969 138.640625 456.765625 143.074219 453.707031 C 147.507812 450.648438 150.355469 445.839844 153.023438 441.15625 C 154.890625 437.878906 156.792969 434.347656 156.558594 430.582031 C 156.261719 425.753906 152.207031 421.636719 147.503906 420.488281 C 142.800781 419.34375 135.101562 419.082031 128.878906 431.179688 Z M 128.878906 431.179688 "/><path style=" stroke:none;fill-rule:nonzero;fill:#fdede3;fill-opacity:1;" d="M 382.628906 345.113281 C 381.183594 340.667969 377.394531 337.328125 373.109375 335.5 C 368.828125 333.667969 364.066406 333.179688 359.371094 333.019531 C 353.527344 332.820312 346.742188 333.570312 343.3125 338.425781 C 341.152344 341.484375 340.921875 345.570312 342.003906 349.066406 C 343.085938 352.5625 345.332031 355.550781 347.804688 358.210938 C 351.707031 362.410156 356.375 366.03125 361.828125 367.867188 C 367.285156 369.707031 373.601562 369.597656 378.746094 366.730469 C 383.886719 363.867188 386.898438 358.25 382.628906 345.113281 Z M 382.628906 345.113281 "/><path style=" stroke:none;fill-rule:nonzero;fill:#fdede3;fill-opacity:1;" d="M 537.769531 316.605469 C 532.558594 312.964844 528.148438 310.441406 521.960938 308.664062 C 520.667969 308.289062 519.726562 310.160156 518.761719 311.097656 C 511.996094 317.675781 510.640625 328.523438 513.746094 337.4375 C 516.847656 346.347656 523.726562 353.507812 531.417969 358.980469 C 535.976562 362.226562 540.988281 365.027344 546.480469 366.125 C 551.972656 367.222656 558.023438 366.441406 562.503906 363.085938 C 569.90625 357.550781 574.519531 344.121094 567.753906 337.824219 C 562.65625 333.074219 552.203125 326.683594 537.769531 316.605469 Z M 537.769531 316.605469 "/><path style=" stroke:none;fill-rule:nonzero;fill:#361021;fill-opacity:1;" d="M 533.117188 608.496094 L 532.46875 604.433594 C 573.191406 597.980469 611.832031 587.355469 647.316406 572.847656 C 668.734375 564.09375 694.46875 550.953125 703.433594 526.84375 C 708.894531 512.15625 707.292969 493.738281 699.039062 476.3125 C 691.46875 460.324219 679.414062 446.464844 667.714844 433.636719 C 623.605469 385.261719 583.992188 350.347656 543.046875 323.773438 C 517.792969 307.378906 491.75 294.1875 465.636719 284.558594 C 421.703125 268.363281 372.847656 267.707031 328.078125 282.714844 C 249.996094 308.886719 205.347656 348.597656 158.082031 390.640625 C 133.164062 412.804688 107.261719 440.046875 104.105469 474.070312 C 101.195312 505.429688 119.878906 539.445312 151.703125 560.738281 C 181.441406 580.632812 218.3125 588.636719 250.539062 594.578125 C 264.5 597.148438 278.398438 599.472656 291.847656 601.472656 L 291.238281 605.542969 C 277.742188 603.535156 263.800781 601.203125 249.792969 598.625 C 217.160156 592.609375 179.804688 584.488281 149.414062 564.160156 C 116.351562 542.039062 96.957031 506.527344 100.007812 473.691406 C 103.296875 438.246094 129.828125 410.265625 155.34375 387.566406 C 202.933594 345.238281 247.886719 305.253906 326.769531 278.8125 C 372.425781 263.507812 422.25 264.175781 467.0625 280.699219 C 493.460938 290.429688 519.777344 303.761719 545.289062 320.320312 C 586.539062 347.09375 626.40625 382.222656 670.757812 430.867188 C 682.664062 443.921875 694.945312 458.050781 702.757812 474.550781 C 711.488281 492.972656 713.140625 512.554688 707.292969 528.273438 C 697.769531 553.886719 671.074219 567.585938 648.875 576.65625 C 613.097656 591.28125 574.148438 601.996094 533.117188 608.496094 Z M 530.773438 595.875 L 530.003906 591.832031 C 576.175781 583.082031 619.671875 568.371094 659.289062 548.113281 C 662.574219 546.429688 666.15625 544.371094 667.085938 541.179688 C 668.089844 537.730469 665.453125 533.863281 662.320312 532.113281 C 658.8125 530.160156 654.585938 529.828125 649.820312 529.617188 C 632.652344 528.867188 615.128906 528.945312 598.1875 529.011719 C 570.09375 529.132812 541.035156 529.25 512.648438 525.632812 C 468.15625 519.972656 424.984375 505.128906 383.234375 490.773438 C 372.398438 487.046875 361.195312 483.195312 350.15625 479.570312 C 283.449219 457.660156 164.640625 433.453125 142.484375 481.699219 C 136.367188 495.011719 136.210938 509.832031 142.0625 521.34375 C 151.097656 539.105469 171.160156 548.550781 191.5 556.105469 C 225.945312 568.90625 260.730469 579.140625 294.878906 586.519531 L 294.011719 590.539062 C 259.667969 583.121094 224.695312 572.832031 190.0625 559.964844 C 168.945312 552.117188 148.066406 542.230469 138.394531 523.207031 C 131.976562 510.585938 132.105469 494.429688 138.742188 479.980469 C 167.519531 417.328125 332.703125 469.507812 351.441406 475.660156 C 362.507812 479.296875 373.726562 483.152344 384.574219 486.882812 C 426.128906 501.167969 469.097656 515.941406 513.167969 521.550781 C 541.285156 525.132812 570.203125 525.011719 598.171875 524.894531 C 615.164062 524.828125 632.738281 524.753906 650 525.507812 C 655.101562 525.730469 660.039062 526.128906 664.328125 528.523438 C 668.914062 531.082031 672.691406 536.644531 671.039062 542.328125 C 669.652344 547.09375 665.214844 549.703125 661.164062 551.773438 C 621.195312 572.210938 577.328125 587.050781 530.773438 595.875 Z M 530.773438 595.875 "/><path style=" stroke:none;fill-rule:nonzero;fill:#fdede2;fill-opacity:1;" d="M 405.535156 685.980469 C 412.449219 699.207031 412.796875 710.742188 419.582031 723.960938 C 423.636719 731.863281 429.476562 740.203125 437.730469 743.789062 C 445.785156 747.292969 455.042969 745.191406 461.6875 740.492188 C 467.203125 736.585938 490.929688 715.628906 505.664062 679.519531 C 514.472656 657.941406 523.09375 633.175781 520.652344 586.691406 C 519.046875 556.199219 513.6875 525.898438 504.574219 496.597656 C 499.632812 480.699219 468.714844 512.558594 461.570312 497.378906 C 440.359375 497.089844 424.910156 468.09375 403.738281 466.753906 C 382.570312 465.414062 378.710938 445.488281 365.523438 462.09375 C 356.230469 473.792969 353.625 489.335938 352.101562 504.195312 C 346.46875 558.988281 351.285156 614.832031 365.375 668.644531 C 365.261719 670.480469 366.320312 672.226562 367.726562 673.410156 C 369.132812 674.59375 370.867188 675.308594 372.566406 676.003906 C 382.59375 680.101562 392.6875 684.222656 405.535156 685.980469 Z M 405.535156 685.980469 "/><path style=" stroke:none;fill-rule:nonzero;fill:#fdede2;fill-opacity:1;" d="M 275.421875 611.453125 C 263.34375 613.546875 250.992188 612.449219 240.058594 608.300781 C 228.027344 603.738281 218.578125 595.558594 214.230469 585.945312 C 211.554688 580.03125 210.835938 573.320312 214.230469 567.523438 C 217.628906 561.726562 225.84375 557.238281 234.117188 558.007812 C 240.410156 558.59375 245.558594 561.925781 249.636719 565.53125 C 253.714844 569.136719 257.195312 573.199219 262.15625 576.113281 C 265.296875 577.960938 269.398438 579.5625 273.234375 580.121094 C 272.664062 590.5625 273.484375 601.078125 275.421875 611.453125 Z M 275.421875 611.453125 "/><path style=" stroke:none;fill-rule:nonzero;fill:#361021;fill-opacity:1;" d="M 263.367188 614.554688 C 255.058594 614.554688 246.90625 613.101562 239.328125 610.226562 C 226.769531 605.460938 216.9375 596.921875 212.355469 586.792969 C 209.039062 579.464844 209.074219 572.25 212.453125 566.484375 C 216.5 559.582031 225.6875 555.148438 234.308594 555.960938 C 240.027344 556.492188 245.488281 559.117188 251 563.988281 C 252.1875 565.039062 253.328125 566.128906 254.46875 567.21875 C 257.246094 569.875 259.867188 572.382812 263.199219 574.339844 C 266.582031 576.328125 270.3125 577.542969 273.429688 577.667969 C 274.566406 577.710938 275.449219 578.667969 275.40625 579.804688 C 275.359375 580.9375 274.4375 581.835938 273.265625 581.777344 C 268.097656 581.570312 263.433594 579.25 261.113281 577.886719 C 257.367188 575.6875 254.449219 572.894531 251.621094 570.195312 C 250.523438 569.140625 249.421875 568.085938 248.269531 567.070312 C 243.4375 562.800781 238.746094 560.503906 233.925781 560.054688 C 225.949219 559.316406 218.746094 563.886719 216.007812 568.5625 C 212.382812 574.746094 214.515625 581.578125 216.105469 585.101562 C 220.242188 594.242188 229.238281 602 240.789062 606.378906 C 251.429688 610.414062 263.285156 611.46875 275.070312 609.429688 C 276.203125 609.234375 277.257812 609.984375 277.453125 611.101562 C 277.644531 612.222656 276.894531 613.289062 275.777344 613.480469 C 271.632812 614.199219 267.480469 614.554688 263.367188 614.554688 Z M 263.367188 614.554688 "/><path style=" stroke:none;fill-rule:nonzero;fill:#fdede2;fill-opacity:1;" d="M 379.433594 679.238281 C 372.519531 692.464844 369.160156 711.53125 362.375 724.75 C 358.316406 732.652344 353.234375 741 344.980469 744.585938 C 336.921875 748.089844 327.664062 745.992188 321.023438 741.289062 C 315.507812 737.386719 293.289062 711.152344 278.550781 675.046875 C 269.746094 653.46875 261.121094 628.699219 263.566406 582.21875 C 266.039062 535.179688 277.457031 488.597656 300.042969 444.019531 C 312.714844 442.152344 319.492188 453.839844 332.253906 454.933594 C 345.011719 456.03125 358.667969 461.136719 367.757812 470.15625 C 377.769531 480.089844 387.300781 480.023438 390.339844 493.796875 C 403.570312 553.726562 409.816406 621.121094 379.433594 679.238281 Z M 379.433594 679.238281 "/><path style=" stroke:none;fill-rule:nonzero;fill:#361021;fill-opacity:1;" d="M 446.371094 747.59375 C 443.085938 747.59375 439.867188 746.960938 436.90625 745.675781 C 429.652344 742.523438 423.207031 735.53125 417.75 724.902344 C 414.304688 718.183594 412.464844 711.859375 410.6875 705.742188 C 408.847656 699.414062 407.109375 693.433594 403.710938 686.933594 C 403.183594 685.925781 403.574219 684.683594 404.582031 684.15625 C 405.589844 683.632812 406.832031 684.023438 407.359375 685.027344 C 410.949219 691.894531 412.824219 698.351562 414.640625 704.59375 C 416.441406 710.800781 418.148438 716.65625 421.414062 723.023438 C 426.421875 732.785156 432.1875 739.136719 438.550781 741.902344 C 446.582031 745.394531 455.152344 742.597656 460.496094 738.8125 C 460.761719 738.625 487.316406 719.03125 503.757812 678.746094 C 512.941406 656.242188 520.984375 632.28125 518.597656 586.800781 C 517.199219 560.242188 512.925781 533.816406 505.894531 508.257812 C 505.59375 507.164062 506.238281 506.03125 507.335938 505.730469 C 508.433594 505.425781 509.5625 506.070312 509.863281 507.167969 C 516.972656 533.011719 521.292969 559.730469 522.707031 586.585938 C 525.140625 632.875 516.5625 658.261719 507.570312 680.296875 C 493.335938 715.183594 470.480469 736.789062 462.875 742.171875 C 457.832031 745.742188 452.003906 747.59375 446.371094 747.59375 Z M 446.371094 747.59375 "/><g clip-rule="nonzero" clip-path="url(#2e61a3dca8)"><path style=" stroke:none;fill-rule:nonzero;fill:#361021;fill-opacity:1;" d="M 336.339844 748.390625 C 330.707031 748.390625 324.878906 746.539062 319.835938 742.96875 C 313.515625 738.496094 291.394531 711.957031 276.648438 675.824219 C 267.652344 653.789062 259.078125 628.402344 261.511719 582.109375 C 264.003906 534.726562 275.777344 487.332031 295.558594 445.046875 C 296.039062 444.019531 297.261719 443.574219 298.296875 444.058594 C 299.324219 444.539062 299.769531 445.761719 299.289062 446.792969 C 279.726562 488.601562 268.085938 535.46875 265.621094 582.324219 C 263.230469 627.808594 271.277344 651.769531 280.457031 674.269531 C 295.636719 711.457031 317.894531 736.554688 322.214844 739.613281 C 327.558594 743.394531 336.132812 746.191406 344.160156 742.703125 C 351.726562 739.414062 356.503906 731.679688 360.542969 723.8125 C 363.816406 717.433594 366.351562 709.417969 368.804688 701.664062 C 371.371094 693.539062 374.027344 685.136719 377.609375 678.285156 C 378.136719 677.277344 379.382812 676.890625 380.386719 677.414062 C 381.394531 677.941406 381.785156 679.183594 381.257812 680.191406 C 377.84375 686.722656 375.242188 694.949219 372.726562 702.90625 C 370.226562 710.820312 367.636719 719.003906 364.203125 725.691406 C 359.820312 734.238281 354.554688 742.671875 345.800781 746.472656 C 342.84375 747.761719 339.625 748.390625 336.339844 748.390625 Z M 336.339844 748.390625 "/></g><path style=" stroke:none;fill-rule:nonzero;fill:#361021;fill-opacity:1;" d="M 429.148438 690.039062 C 390.320312 690.039062 351.242188 673.597656 324.1875 645.777344 C 323.394531 644.964844 323.414062 643.664062 324.230469 642.871094 C 325.042969 642.082031 326.347656 642.09375 327.140625 642.910156 C 353.964844 670.492188 392.957031 686.550781 431.433594 685.902344 C 432.558594 685.898438 433.507812 686.789062 433.527344 687.925781 C 433.546875 689.0625 432.640625 689.996094 431.503906 690.019531 C 430.722656 690.03125 429.933594 690.039062 429.148438 690.039062 Z M 429.148438 690.039062 "/><path style=" stroke:none;fill-rule:nonzero;fill:#fdede2;fill-opacity:1;" d="M 491.140625 619.941406 C 501.277344 628.421875 515.644531 630.996094 528.363281 626.609375 C 541.082031 622.222656 551.800781 610.996094 556.132812 597.523438 C 557.980469 591.765625 558.703125 585.484375 557.167969 579.792969 C 555.628906 574.097656 551.570312 569.109375 546.164062 567.667969 C 540.246094 566.09375 533.839844 568.855469 528.644531 572.648438 C 523.445312 576.445312 518.933594 581.296875 513.558594 584.789062 C 508.183594 588.277344 501.410156 590.28125 497.109375 588.589844 C 495.398438 598.300781 493.6875 608.007812 491.140625 619.941406 Z M 491.140625 619.941406 "/><path style=" stroke:none;fill-rule:nonzero;fill:#361021;fill-opacity:1;" d="M 515.667969 630.789062 C 506.296875 630.789062 497.074219 627.59375 489.820312 621.519531 C 488.945312 620.792969 488.832031 619.496094 489.558594 618.625 C 490.289062 617.75 491.589844 617.636719 492.460938 618.363281 C 502.097656 626.425781 515.597656 628.839844 527.691406 624.664062 C 539.867188 620.464844 550.015625 609.824219 554.171875 596.894531 C 555.53125 592.667969 556.808594 586.359375 555.179688 580.328125 C 553.742188 575.007812 549.996094 570.816406 545.632812 569.65625 C 539.632812 568.054688 533.175781 571.886719 529.855469 574.3125 C 527.644531 575.925781 525.492188 577.796875 523.410156 579.609375 C 520.660156 582 517.816406 584.476562 514.679688 586.511719 C 507.703125 591.042969 500.53125 592.140625 494.992188 589.527344 C 493.964844 589.042969 493.523438 587.816406 494.007812 586.789062 C 494.496094 585.761719 495.722656 585.324219 496.75 585.808594 C 500.902344 587.769531 506.765625 586.742188 512.4375 583.0625 C 515.332031 581.183594 517.941406 578.910156 520.707031 576.503906 C 522.855469 574.636719 525.074219 572.707031 527.429688 570.988281 C 532.207031 567.5 539.425781 563.75 546.691406 565.679688 C 552.539062 567.238281 557.3125 572.4375 559.152344 579.253906 C 560.652344 584.796875 560.285156 591.332031 558.089844 598.152344 C 553.546875 612.292969 542.414062 623.9375 529.035156 628.554688 C 524.675781 630.054688 520.15625 630.789062 515.667969 630.789062 Z M 515.667969 630.789062 "/><path style=" stroke:none;fill-rule:nonzero;fill:#361021;fill-opacity:1;" d="M 362.265625 552.558594 C 361.9375 552.558594 361.609375 552.546875 361.277344 552.527344 C 354.25 552.105469 348.386719 547.339844 346.6875 540.671875 C 346.40625 539.570312 347.074219 538.449219 348.175781 538.171875 C 349.269531 537.886719 350.398438 538.554688 350.679688 539.65625 C 351.933594 544.582031 356.292969 548.105469 361.523438 548.421875 C 366.578125 548.722656 371.28125 545.886719 373.210938 541.359375 C 373.65625 540.3125 374.859375 539.824219 375.910156 540.273438 C 376.957031 540.714844 377.441406 541.925781 376.996094 542.96875 C 374.515625 548.796875 368.679688 552.558594 362.265625 552.558594 Z M 362.265625 552.558594 "/><path style=" stroke:none;fill-rule:nonzero;fill:#e75846;fill-opacity:1;" d="M 452.730469 559.722656 C 452.730469 560.261719 452.707031 560.792969 452.652344 561.328125 C 452.601562 561.863281 452.523438 562.390625 452.417969 562.917969 C 452.3125 563.441406 452.183594 563.960938 452.027344 564.476562 C 451.871094 564.988281 451.691406 565.492188 451.484375 565.988281 C 451.28125 566.484375 451.050781 566.96875 450.796875 567.441406 C 450.546875 567.914062 450.269531 568.371094 449.972656 568.820312 C 449.671875 569.265625 449.355469 569.695312 449.015625 570.109375 C 448.675781 570.523438 448.3125 570.921875 447.933594 571.300781 C 447.554688 571.679688 447.160156 572.039062 446.742188 572.378906 C 446.328125 572.71875 445.898438 573.039062 445.453125 573.335938 C 445.007812 573.632812 444.546875 573.910156 444.074219 574.160156 C 443.601562 574.414062 443.117188 574.644531 442.621094 574.847656 C 442.125 575.054688 441.621094 575.234375 441.109375 575.390625 C 440.59375 575.546875 440.074219 575.675781 439.546875 575.78125 C 439.023438 575.882812 438.492188 575.964844 437.957031 576.015625 C 437.425781 576.066406 436.890625 576.09375 436.351562 576.09375 C 435.816406 576.09375 435.28125 576.066406 434.746094 576.015625 C 434.214844 575.964844 433.683594 575.882812 433.15625 575.78125 C 432.632812 575.675781 432.113281 575.546875 431.597656 575.390625 C 431.085938 575.234375 430.582031 575.054688 430.085938 574.847656 C 429.589844 574.644531 429.105469 574.414062 428.632812 574.160156 C 428.160156 573.910156 427.699219 573.632812 427.253906 573.335938 C 426.808594 573.039062 426.375 572.71875 425.960938 572.378906 C 425.546875 572.039062 425.152344 571.679688 424.769531 571.300781 C 424.390625 570.921875 424.03125 570.523438 423.691406 570.109375 C 423.351562 569.695312 423.03125 569.265625 422.734375 568.820312 C 422.4375 568.371094 422.160156 567.914062 421.90625 567.441406 C 421.65625 566.96875 421.425781 566.484375 421.21875 565.988281 C 421.015625 565.492188 420.835938 564.988281 420.679688 564.476562 C 420.523438 563.960938 420.394531 563.441406 420.289062 562.917969 C 420.183594 562.390625 420.105469 561.863281 420.050781 561.328125 C 420 560.792969 419.972656 560.261719 419.972656 559.722656 C 419.972656 559.1875 420 558.652344 420.050781 558.117188 C 420.105469 557.585938 420.183594 557.054688 420.289062 556.53125 C 420.394531 556.003906 420.523438 555.484375 420.679688 554.972656 C 420.835938 554.457031 421.015625 553.953125 421.21875 553.457031 C 421.425781 552.964844 421.65625 552.480469 421.90625 552.007812 C 422.160156 551.535156 422.4375 551.074219 422.734375 550.628906 C 423.03125 550.183594 423.351562 549.753906 423.691406 549.339844 C 424.03125 548.921875 424.390625 548.527344 424.769531 548.148438 C 425.152344 547.769531 425.546875 547.410156 425.960938 547.070312 C 426.375 546.730469 426.808594 546.410156 427.253906 546.113281 C 427.699219 545.8125 428.160156 545.539062 428.632812 545.285156 C 429.105469 545.03125 429.589844 544.804688 430.085938 544.597656 C 430.582031 544.394531 431.085938 544.214844 431.597656 544.058594 C 432.113281 543.902344 432.632812 543.773438 433.15625 543.667969 C 433.683594 543.5625 434.214844 543.484375 434.746094 543.433594 C 435.28125 543.378906 435.816406 543.351562 436.351562 543.351562 C 436.890625 543.351562 437.425781 543.378906 437.957031 543.433594 C 438.492188 543.484375 439.023438 543.5625 439.546875 543.667969 C 440.074219 543.773438 440.59375 543.902344 441.109375 544.058594 C 441.621094 544.214844 442.125 544.394531 442.621094 544.597656 C 443.117188 544.804688 443.601562 545.03125 444.074219 545.285156 C 444.546875 545.539062 445.007812 545.8125 445.453125 546.113281 C 445.898438 546.410156 446.328125 546.730469 446.742188 547.070312 C 447.160156 547.410156 447.554688 547.769531 447.933594 548.148438 C 448.3125 548.527344 448.675781 548.921875 449.015625 549.339844 C 449.355469 549.753906 449.671875 550.183594 449.972656 550.628906 C 450.269531 551.074219 450.546875 551.535156 450.796875 552.007812 C 451.050781 552.480469 451.28125 552.964844 451.484375 553.457031 C 451.691406 553.953125 451.871094 554.457031 452.027344 554.972656 C 452.183594 555.484375 452.3125 556.003906 452.417969 556.53125 C 452.523438 557.054688 452.601562 557.585938 452.652344 558.117188 C 452.707031 558.652344 452.730469 559.1875 452.730469 559.722656 Z M 452.730469 559.722656 "/><path style=" stroke:none;fill-rule:nonzero;fill:#e75846;fill-opacity:1;" d="M 308.183594 549.253906 C 308.183594 549.792969 308.15625 550.328125 308.105469 550.859375 C 308.054688 551.394531 307.972656 551.921875 307.871094 552.449219 C 307.765625 552.976562 307.632812 553.496094 307.480469 554.007812 C 307.324219 554.519531 307.144531 555.023438 306.9375 555.519531 C 306.730469 556.015625 306.503906 556.5 306.25 556.972656 C 305.996094 557.445312 305.722656 557.90625 305.425781 558.351562 C 305.125 558.796875 304.808594 559.226562 304.464844 559.640625 C 304.125 560.054688 303.765625 560.453125 303.386719 560.832031 C 303.007812 561.210938 302.609375 561.570312 302.195312 561.910156 C 301.78125 562.25 301.351562 562.570312 300.90625 562.867188 C 300.457031 563.164062 300 563.441406 299.527344 563.691406 C 299.054688 563.945312 298.570312 564.175781 298.074219 564.378906 C 297.578125 564.585938 297.074219 564.765625 296.558594 564.921875 C 296.046875 565.078125 295.527344 565.207031 295 565.3125 C 294.472656 565.417969 293.945312 565.496094 293.410156 565.546875 C 292.875 565.601562 292.339844 565.625 291.804688 565.625 C 291.269531 565.625 290.734375 565.601562 290.199219 565.546875 C 289.664062 565.496094 289.136719 565.417969 288.609375 565.3125 C 288.082031 565.207031 287.5625 565.078125 287.050781 564.921875 C 286.539062 564.765625 286.03125 564.585938 285.535156 564.378906 C 285.042969 564.175781 284.558594 563.945312 284.085938 563.691406 C 283.609375 563.441406 283.152344 563.164062 282.707031 562.867188 C 282.257812 562.570312 281.828125 562.25 281.414062 561.910156 C 281 561.570312 280.601562 561.210938 280.222656 560.832031 C 279.84375 560.453125 279.484375 560.054688 279.144531 559.640625 C 278.804688 559.226562 278.484375 558.796875 278.1875 558.351562 C 277.886719 557.90625 277.613281 557.445312 277.359375 556.972656 C 277.105469 556.5 276.878906 556.015625 276.671875 555.519531 C 276.46875 555.023438 276.285156 554.519531 276.132812 554.007812 C 275.976562 553.496094 275.84375 552.976562 275.742188 552.449219 C 275.636719 551.921875 275.558594 551.394531 275.503906 550.859375 C 275.453125 550.328125 275.425781 549.792969 275.425781 549.253906 C 275.425781 548.71875 275.453125 548.183594 275.503906 547.652344 C 275.558594 547.117188 275.636719 546.585938 275.742188 546.0625 C 275.84375 545.535156 275.976562 545.015625 276.132812 544.503906 C 276.285156 543.988281 276.46875 543.484375 276.671875 542.992188 C 276.878906 542.496094 277.105469 542.011719 277.359375 541.539062 C 277.613281 541.066406 277.886719 540.605469 278.1875 540.160156 C 278.484375 539.714844 278.804688 539.285156 279.144531 538.871094 C 279.484375 538.457031 279.84375 538.058594 280.222656 537.679688 C 280.601562 537.300781 281 536.941406 281.414062 536.601562 C 281.828125 536.261719 282.257812 535.941406 282.707031 535.644531 C 283.152344 535.34375 283.609375 535.070312 284.085938 534.816406 C 284.558594 534.566406 285.042969 534.335938 285.535156 534.128906 C 286.03125 533.925781 286.539062 533.746094 287.050781 533.589844 C 287.5625 533.433594 288.082031 533.304688 288.609375 533.199219 C 289.136719 533.09375 289.664062 533.015625 290.199219 532.964844 C 290.734375 532.910156 291.269531 532.882812 291.804688 532.882812 C 292.339844 532.882812 292.875 532.910156 293.410156 532.964844 C 293.945312 533.015625 294.472656 533.09375 295 533.199219 C 295.527344 533.304688 296.046875 533.433594 296.558594 533.589844 C 297.074219 533.746094 297.578125 533.925781 298.074219 534.128906 C 298.570312 534.335938 299.054688 534.566406 299.527344 534.816406 C 300 535.070312 300.457031 535.34375 300.90625 535.644531 C 301.351562 535.941406 301.78125 536.261719 302.195312 536.601562 C 302.609375 536.941406 303.007812 537.300781 303.386719 537.679688 C 303.765625 538.058594 304.125 538.457031 304.464844 538.871094 C 304.808594 539.285156 305.125 539.714844 305.425781 540.160156 C 305.722656 540.605469 305.996094 541.066406 306.25 541.539062 C 306.503906 542.011719 306.730469 542.496094 306.9375 542.992188 C 307.144531 543.484375 307.324219 543.988281 307.480469 544.503906 C 307.632812 545.015625 307.765625 545.535156 307.871094 546.0625 C 307.972656 546.585938 308.054688 547.117188 308.105469 547.652344 C 308.15625 548.183594 308.183594 548.71875 308.183594 549.253906 Z M 308.183594 549.253906 "/><path style=" stroke:none;fill-rule:nonzero;fill:#361021;fill-opacity:1;" d="M 431.378906 550.652344 C 430.507812 550.652344 429.699219 550.09375 429.417969 549.21875 C 428.472656 546.265625 425.660156 544.023438 422.253906 543.507812 C 419.050781 543.019531 415.894531 544.140625 414.035156 546.425781 C 413.316406 547.308594 412.019531 547.441406 411.140625 546.722656 C 410.257812 546.003906 410.125 544.710938 410.84375 543.828125 C 413.617188 540.421875 418.230469 538.738281 422.871094 539.441406 C 427.808594 540.1875 431.917969 543.535156 433.335938 547.964844 C 433.683594 549.046875 433.089844 550.203125 432.007812 550.550781 C 431.796875 550.617188 431.585938 550.652344 431.378906 550.652344 Z M 431.378906 550.652344 "/><path style=" stroke:none;fill-rule:nonzero;fill:#361021;fill-opacity:1;" d="M 318.058594 541.734375 C 317.1875 541.734375 316.375 541.175781 316.097656 540.304688 C 315.152344 537.347656 312.339844 535.109375 308.933594 534.59375 C 305.722656 534.109375 302.578125 535.226562 300.714844 537.511719 C 299.996094 538.390625 298.699219 538.523438 297.820312 537.804688 C 296.9375 537.089844 296.804688 535.792969 297.523438 534.914062 C 300.300781 531.503906 304.910156 529.828125 309.550781 530.527344 C 314.488281 531.273438 318.597656 534.617188 320.019531 539.050781 C 320.363281 540.132812 319.769531 541.289062 318.683594 541.636719 C 318.476562 541.703125 318.265625 541.734375 318.058594 541.734375 Z M 318.058594 541.734375 "/><path style=" stroke:none;fill-rule:nonzero;fill:#e75846;fill-opacity:1;" d="M 273.964844 458.027344 C 303.882812 463.523438 359.617188 480.546875 359.617188 480.546875 C 359.617188 480.546875 457.089844 516.488281 512.910156 523.59375 C 516.738281 524.082031 520.574219 524.5 522.664062 524.859375 C 529.207031 518.195312 528.601562 506.652344 523.085938 499.117188 C 517.566406 491.582031 508.335938 487.570312 499.144531 485.917969 C 489.949219 484.265625 480.527344 484.640625 471.207031 484.046875 C 455.058594 483.015625 438.542969 478.753906 426.109375 468.402344 C 417.972656 461.628906 411.84375 452.476562 402.882812 446.832031 C 392.734375 440.445312 380.136719 439.316406 368.164062 439.9375 C 356.1875 440.558594 344.273438 442.75 332.292969 442.289062 C 321.691406 441.886719 311.164062 439.40625 300.574219 440.078125 C 289.984375 440.746094 278.683594 445.503906 273.964844 458.027344 Z M 273.964844 458.027344 "/><path style=" stroke:none;fill-rule:nonzero;fill:#361021;fill-opacity:1;" d="M 524.21875 526.910156 C 520.304688 526.542969 516.414062 526.113281 512.648438 525.632812 C 468.15625 519.972656 424.984375 505.128906 383.234375 490.773438 C 372.398438 487.046875 361.195312 483.195312 350.15625 479.570312 C 338.832031 475.851562 308.695312 466.5 273.59375 460.050781 L 274.335938 456.003906 C 309.6875 462.5 340.035156 471.914062 351.441406 475.660156 C 362.507812 479.296875 373.722656 483.152344 384.574219 486.882812 C 426.128906 501.167969 469.097656 515.941406 513.167969 521.550781 C 516.886719 522.023438 520.734375 522.449219 524.601562 522.8125 Z M 524.21875 526.910156 "/></g></svg>